<svg width="49" height="48" viewBox="0 0 49 48" fill="none" xmlns="http://www.w3.org/2000/svg">
<path d="M47.6132 23.9062C47.6132 25.2001 47.5087 26.4699 47.2998 27.7076C46.7292 31.2357 45.3549 34.4987 43.3698 37.3035V37.3115C39.9622 42.1577 34.7464 45.6457 28.7108 46.7949C27.2802 47.0682 25.8095 47.2128 24.3066 47.2128C23.9048 47.2128 23.5029 47.2048 23.1091 47.1807H23.0529C22.6751 47.1566 22.2974 47.1325 21.9197 47.0923C21.8875 47.0923 21.8554 47.0842 21.8232 47.0842C21.5097 47.0521 21.1963 47.0119 20.8829 46.9637C20.7945 46.9476 20.698 46.9396 20.6096 46.9235C20.3685 46.8833 20.1354 46.8431 19.8943 46.7949C19.5166 46.7226 19.1389 46.6422 18.7612 46.5458C18.6085 46.5136 18.4477 46.4734 18.295 46.4333C18.0861 46.377 17.8771 46.3127 17.6682 46.2484C17.4833 46.1922 17.2904 46.1359 17.0976 46.0716C16.9046 46.0154 16.7198 45.9511 16.535 45.8787C16.3823 45.8225 16.2296 45.7662 16.0769 45.7099C15.9885 45.6858 15.9081 45.6537 15.8197 45.6135C15.5063 45.4849 15.1928 45.3563 14.8874 45.2196C14.4695 45.0348 14.0597 44.8339 13.6498 44.6249C13.4649 44.5285 13.2881 44.432 13.1033 44.3275C12.8943 44.215 12.6934 44.1025 12.4925 43.982C12.2675 43.8453 12.0424 43.7168 11.8174 43.5721C11.7531 43.5319 11.6888 43.4837 11.6244 43.4435C11.311 43.2426 10.9976 43.0256 10.7002 42.8086C10.443 42.6318 10.1939 42.4389 9.95279 42.2541C9.92868 42.238 9.91261 42.2219 9.8885 42.1979C9.6715 42.0291 9.46255 41.8603 9.26163 41.6835C9.15715 41.6032 9.05267 41.5148 8.95623 41.4264C8.87586 41.354 8.80353 41.2897 8.72317 41.2174C8.70709 41.2094 8.69906 41.2013 8.69102 41.1933C8.66691 41.1692 8.6428 41.1451 8.61869 41.129C8.60261 41.121 8.59458 41.1049 8.58654 41.0968C8.57047 41.0888 8.56243 41.0808 8.55439 41.0647C8.44992 40.9763 8.35348 40.8879 8.25704 40.7915C8.15256 40.695 8.05612 40.6066 7.96771 40.5102C7.95164 40.4941 7.93556 40.478 7.92753 40.4619C7.84716 40.3816 7.76679 40.3092 7.68642 40.2369C7.56451 40.115 7.45199 39.9777 7.33273 39.8516C7.32742 39.8461 7.32196 39.8405 7.31665 39.8351C7.3173 39.8354 7.31786 39.8358 7.3185 39.8361C7.04991 39.5513 6.77948 39.2696 6.52101 38.9671C6.32813 38.7421 6.13525 38.509 5.9504 38.2679C5.69331 37.9384 5.44417 37.6089 5.20299 37.2633C3.22594 34.4424 1.85969 31.1634 1.28908 27.6112C1.09644 26.4057 1 25.168 1 23.9062C1 18.9475 2.54306 14.3505 5.19519 10.5732C7.75892 6.89239 11.3674 3.99112 15.5867 2.29537C18.279 1.19433 21.2205 0.599609 24.3066 0.599609C27.3847 0.599609 30.3261 1.19433 33.0104 2.28733C35.0357 3.09101 36.9163 4.184 38.612 5.51811C39.0621 5.86369 39.5041 6.23338 39.9301 6.62718H39.9381C40.3641 7.01294 40.7739 7.41478 41.1677 7.83269C41.7705 8.45153 42.325 9.1025 42.8474 9.79366C43.0162 10.0187 43.193 10.2518 43.3537 10.4848V10.4929C43.3537 10.4929 43.3537 10.4848 43.3618 10.4929C43.7636 11.0474 44.1413 11.6341 44.4789 12.2368C44.5994 12.4378 44.7119 12.6387 44.8245 12.8476C44.9612 13.0968 45.0898 13.3379 45.2023 13.587C45.2907 13.7558 45.371 13.9246 45.4514 14.1014C45.58 14.3585 45.6925 14.6157 45.797 14.8729C45.9256 15.1622 46.0381 15.4515 46.1426 15.7489C46.231 15.9739 46.3113 16.199 46.3837 16.432C46.448 16.6169 46.5123 16.8098 46.5766 17.0107C46.657 17.2679 46.7293 17.525 46.8017 17.7822C46.8499 17.9671 46.8981 18.1439 46.9383 18.3287C47.083 18.8993 47.2035 19.4699 47.2919 20.0566C47.3241 20.2254 47.3482 20.3942 47.3723 20.571C47.4125 20.8281 47.4446 21.0933 47.4687 21.3505C47.4848 21.463 47.5009 21.5756 47.5089 21.68C47.533 21.9613 47.5571 22.2426 47.5652 22.5319C47.5812 22.6525 47.5893 22.765 47.5893 22.8855C47.6052 23.2231 47.6132 23.5606 47.6132 23.9062Z" fill="white"/>
<path d="M47.613 23.9064C47.613 25.2004 47.5085 26.4702 47.2995 27.7078C46.7289 31.236 45.3546 34.4989 43.3696 37.3037V37.3118C39.962 42.1579 34.7461 45.6459 28.7105 46.7951C27.28 47.0684 25.8092 47.213 24.3064 47.213C23.9045 47.213 23.5027 47.205 23.1089 47.1809H23.0526C22.6749 47.1568 22.2972 47.1327 21.9194 47.0925C21.8873 47.0925 21.8552 47.0845 21.8229 47.0845C21.5095 47.0523 21.1961 47.0121 20.8826 46.9639C20.7942 46.9478 20.6978 46.9398 20.6094 46.9237C20.3683 46.8835 20.1352 46.8434 19.8941 46.7951C19.5164 46.7228 19.1386 46.6424 18.7609 46.546C18.6082 46.5138 18.4475 46.4737 18.2948 46.4335C18.0858 46.3772 17.8769 46.3129 17.6679 46.2486C17.4831 46.1924 17.2902 46.1361 17.0973 46.0718C16.9043 46.0156 16.7196 45.9513 16.5347 45.8789C16.382 45.8227 16.2293 45.7664 16.0766 45.7102C15.9882 45.6861 15.9079 45.6539 15.8195 45.6137C15.506 45.4851 15.1926 45.3566 14.8872 45.2198C14.6782 45.1234 14.4693 45.027 14.2684 44.9305C14.0594 44.8341 13.8585 44.7296 13.6495 44.6251C13.4647 44.5287 13.2879 44.4322 13.103 44.3278C12.8941 44.2153 12.6932 44.1027 12.4922 43.9822C12.2672 43.8456 12.0422 43.717 11.8172 43.5723C11.7529 43.5321 11.6886 43.4839 11.6242 43.4437C11.3108 43.2428 10.9973 43.0258 10.7 42.8088C10.4428 42.632 10.1936 42.4391 9.95254 42.2543C9.92843 42.2382 9.91236 42.2221 9.88825 42.1981C9.67126 42.0293 9.4623 41.8606 9.26138 41.6838C9.24531 41.6757 9.22924 41.6596 9.21308 41.6436C9.00421 41.4668 8.79517 41.2819 8.58621 41.0971C8.57014 41.089 8.5621 41.081 8.55407 41.0649C8.34511 40.864 8.12812 40.6711 7.9272 40.4622C7.71824 40.2532 7.51733 40.0443 7.31641 39.8353C10.5231 41.7159 14.228 42.8652 18.1821 43.0098C18.4875 43.0259 18.7929 43.0339 19.0983 43.0339C24.5311 43.0339 29.5381 41.1774 33.5002 38.0511C38.3142 34.2658 41.6012 28.624 42.2763 22.2026C42.3647 21.3909 42.4049 20.5631 42.4049 19.7273C42.4049 18.0637 42.2281 16.4483 41.8986 14.8892V14.8812C41.0065 10.6619 38.9812 6.88458 36.1523 3.84668C37.0042 4.353 37.832 4.91557 38.6116 5.51833C39.0616 5.87194 39.5036 6.24163 39.9296 6.6274C39.9296 6.6274 39.9296 6.61936 39.9376 6.6274C40.3636 7.0212 40.7734 7.415 41.1672 7.83291C41.9548 8.6607 42.6942 9.55278 43.3532 10.4931C43.7551 11.0557 44.1328 11.6343 44.4784 12.2371C44.5989 12.438 44.7115 12.6389 44.8241 12.8479C44.9607 13.097 45.0893 13.3381 45.2018 13.5872C45.2902 13.756 45.3706 13.9248 45.4509 14.1016C45.5795 14.3588 45.692 14.6159 45.7965 14.8731C45.9251 15.1624 46.0376 15.4518 46.1421 15.7491C46.2305 15.9742 46.3109 16.1992 46.3832 16.4322C46.4475 16.6171 46.5118 16.81 46.5761 17.0109C46.6565 17.2681 46.7288 17.5252 46.8012 17.7824C46.8494 17.9673 46.8976 18.1441 46.9378 18.3289C47.0825 18.8995 47.203 19.4701 47.2914 20.0568C47.3236 20.2256 47.3477 20.3944 47.3718 20.5712C47.412 20.8284 47.4441 21.0936 47.4682 21.3507C47.4843 21.4633 47.5004 21.5758 47.5084 21.6803C47.5325 21.9615 47.5566 22.2428 47.5647 22.5322C47.5807 22.6527 47.5888 22.7652 47.5888 22.8858C47.6049 23.2233 47.613 23.5609 47.613 23.9064Z" fill="#D0CFCE"/>
<path d="M47.6132 23.9062C47.6132 25.2001 47.5087 26.4699 47.2998 27.7076C46.7292 31.2357 45.3549 34.4987 43.3698 37.3035V37.3115C39.9622 42.1577 34.7464 45.6457 28.7108 46.7949C27.2802 47.0682 25.8095 47.2128 24.3066 47.2128C23.9048 47.2128 23.5029 47.2048 23.1091 47.1807H23.0529C22.6751 47.1566 22.2974 47.1325 21.9197 47.0923C21.8875 47.0923 21.8554 47.0842 21.8232 47.0842C21.5097 47.0521 21.1963 47.0119 20.8829 46.9637C20.7945 46.9476 20.698 46.9396 20.6096 46.9235C20.3685 46.8833 20.1354 46.8431 19.8943 46.7949C19.5166 46.7226 19.1389 46.6422 18.7612 46.5458C18.6085 46.5136 18.4477 46.4734 18.295 46.4333C18.0861 46.377 17.8771 46.3127 17.6682 46.2484C17.4833 46.1922 17.2904 46.1359 17.0976 46.0716C16.9046 46.0154 16.7198 45.9511 16.535 45.8787C16.3823 45.8225 16.2296 45.7662 16.0769 45.71C15.9885 45.6858 15.9081 45.6537 15.8197 45.6135C15.5063 45.4849 15.1928 45.3563 14.8874 45.2196C14.4695 45.0348 14.0597 44.8339 13.6498 44.6249C13.4649 44.5285 13.2881 44.432 13.1033 44.3275C12.8943 44.215 12.6934 44.1025 12.4925 43.982C12.2675 43.8453 12.0424 43.7168 11.8174 43.5721C11.7531 43.5319 11.6888 43.4837 11.6244 43.4435C11.311 43.2426 10.9976 43.0256 10.7002 42.8086C10.443 42.6318 10.1939 42.4389 9.95279 42.2541C9.92868 42.238 9.91261 42.2219 9.8885 42.1979C9.6715 42.0291 9.46255 41.8603 9.26163 41.6835C9.15715 41.6032 9.05267 41.5148 8.95623 41.4264C8.87586 41.354 8.80353 41.2897 8.72317 41.2174C8.70709 41.2094 8.69906 41.2013 8.69102 41.1933C8.66691 41.1692 8.6428 41.1451 8.61869 41.129C8.60261 41.121 8.59458 41.1049 8.58654 41.0968C8.57047 41.0888 8.56243 41.0808 8.55439 41.0647C8.44992 40.9763 8.35348 40.8879 8.25704 40.7915C8.15256 40.695 8.05612 40.6066 7.96771 40.5102C7.95164 40.4941 7.93556 40.478 7.92753 40.4619C7.84716 40.3816 7.76679 40.3092 7.68642 40.2369C7.56451 40.115 7.45199 39.9777 7.33273 39.8516C7.32742 39.8461 7.32196 39.8405 7.31665 39.8351C7.3173 39.8354 7.31786 39.8358 7.3185 39.8361C7.04991 39.5513 6.77948 39.2696 6.52101 38.9671C6.32813 38.7421 6.13525 38.509 5.9504 38.2679C5.69331 37.9384 5.44417 37.6089 5.20299 37.2633C3.22594 34.4424 1.85969 31.1634 1.28908 27.6112C1.09644 26.4057 1 25.168 1 23.9062C1 18.9475 2.54306 14.3505 5.19519 10.5732C7.75892 6.89239 11.3674 3.99112 15.5867 2.29537C18.279 1.19433 21.2205 0.599609 24.3066 0.599609C27.3847 0.599609 30.3261 1.19433 33.0104 2.28733C35.0357 3.09101 36.9163 4.184 38.612 5.51811C39.0621 5.86369 39.5041 6.23338 39.9301 6.62718H39.9381C40.3641 7.01294 40.7739 7.41478 41.1677 7.83269C41.7705 8.45153 42.325 9.1025 42.8474 9.79366C43.0162 10.0187 43.193 10.2518 43.3537 10.4848V10.4929C43.3537 10.4929 43.3537 10.4848 43.3618 10.4929C43.7636 11.0474 44.1413 11.6341 44.4789 12.2368C44.5994 12.4378 44.7119 12.6387 44.8245 12.8476C44.9612 13.0968 45.0898 13.3379 45.2023 13.587C45.2907 13.7558 45.371 13.9246 45.4514 14.1014C45.58 14.3585 45.6925 14.6157 45.797 14.8729C45.9256 15.1622 46.0381 15.4515 46.1426 15.7489C46.231 15.9739 46.3113 16.199 46.3837 16.432C46.448 16.6169 46.5123 16.8098 46.5766 17.0107C46.657 17.2679 46.7293 17.525 46.8017 17.7822C46.8499 17.967 46.8981 18.1439 46.9383 18.3287C47.083 18.8993 47.2035 19.4699 47.2919 20.0566C47.3241 20.2254 47.3482 20.3942 47.3723 20.571C47.4125 20.8281 47.4446 21.0934 47.4687 21.3505C47.4848 21.463 47.5009 21.5756 47.5089 21.68C47.533 21.9613 47.5571 22.2426 47.5652 22.5319C47.5812 22.6525 47.5893 22.765 47.5893 22.8855C47.6052 23.2231 47.6132 23.5606 47.6132 23.9062Z" stroke="#235CA0" stroke-miterlimit="10" stroke-linecap="round" stroke-linejoin="round"/>
<path d="M22.8903 17.5356L17.9432 21.1298C17.0982 21.7438 16.7446 22.832 17.0674 23.8255L18.957 29.641C19.2797 30.6344 20.2055 31.307 21.25 31.307H27.3649C28.4094 31.307 29.3351 30.6344 29.6579 29.641L31.5475 23.8255C31.8703 22.832 31.5168 21.7438 30.6717 21.1298L25.7247 17.5356C24.8796 16.9217 23.7353 16.9217 22.8903 17.5356Z" fill="#235CA0"/>
<path d="M32.568 3.1553L25.8091 6.46645C25.3349 6.69147 24.8205 6.80399 24.3062 6.79595C23.8481 6.788 23.39 6.68344 22.956 6.48252L16.0364 3.18745C15.6988 3.02671 15.522 2.64898 15.5863 2.29537C18.2786 1.19433 21.2201 0.599609 24.3062 0.599609C27.3843 0.599609 30.3257 1.19433 33.01 2.28733C33.0743 2.63291 32.9055 2.99456 32.568 3.1553Z" fill="#235CA0"/>
<path d="M19.8944 46.7949C19.5167 46.7226 19.139 46.6422 18.7612 46.5457C18.6085 46.5136 18.4478 46.4734 18.2951 46.4332C18.0861 46.377 17.8772 46.3127 17.6682 46.2484C17.4834 46.1921 17.2905 46.1359 17.0976 46.0716C16.9047 46.0154 16.7199 45.951 16.535 45.8787C16.3823 45.8224 16.2296 45.7662 16.0769 45.7099C15.9885 45.6858 15.9082 45.6537 15.8198 45.6135C15.5063 45.4849 15.1929 45.3563 14.8875 45.2196C14.468 45.0344 14.0571 44.8333 13.651 44.6241C13.4662 44.5293 13.285 44.4293 13.1031 44.3298C12.8976 44.2168 12.694 44.1009 12.4922 43.9817C12.2653 43.8484 12.0394 43.7144 11.8174 43.5737C11.7516 43.5317 11.6881 43.4869 11.6227 43.4443C9.10754 41.813 6.92203 39.7163 5.20312 37.2632C5.35582 36.9899 5.66926 36.8212 6.01484 36.8614L13.5212 37.7776C14.0355 37.8418 14.5177 38.0187 14.9356 38.2999C15.3294 38.5652 15.667 38.9107 15.9161 39.3206L18.1825 43.0095L19.9425 45.8866C20.1194 46.176 20.0953 46.5377 19.8944 46.7949Z" fill="#235CA0"/>
<path d="M7.558 20.1852C7.44548 20.6513 7.22849 21.0934 6.92309 21.4791L2.1814 27.346C1.95637 27.6192 1.59472 27.7157 1.28932 27.6112C1.09644 26.4057 1 25.168 1 23.9062C1 18.9475 2.54306 14.3505 5.19519 10.5732C5.53273 10.6134 5.83009 10.8545 5.90243 11.2081L7.57407 18.7064C7.68659 19.1967 7.67855 19.703 7.558 20.1852Z" fill="#235CA0"/>
<path d="M43.3705 37.3037V37.3117C39.9629 42.1579 34.7471 45.6459 28.7115 46.7951C28.5025 46.538 28.4784 46.1683 28.6552 45.8709L32.6656 39.329C32.9227 38.9111 33.2603 38.5655 33.6621 38.3003C34.08 38.027 34.5542 37.8502 35.0605 37.7859L42.5427 36.8697C42.8964 36.8295 43.2178 37.0144 43.3705 37.3037Z" fill="#235CA0"/>
<path d="M47.6125 23.9067C47.6125 25.2006 47.5081 26.4704 47.2991 27.7081C47.0098 27.7724 46.6964 27.6759 46.4954 27.4268L42.2761 22.2029L41.6895 21.4796C41.0626 20.7081 40.8215 19.6874 41.0465 18.7069L41.8984 14.8894V14.8814L42.7342 11.1122C42.7985 10.7987 43.0477 10.5577 43.3531 10.4933C43.3531 10.4853 43.3531 10.4853 43.3611 10.4933C43.7629 11.0479 44.1407 11.6346 44.4782 12.2373C44.5988 12.4382 44.7113 12.6391 44.8239 12.8481C44.9605 13.0972 45.0891 13.3383 45.2016 13.5875C45.29 13.7563 45.3704 13.925 45.4507 14.1018C45.5793 14.359 45.6918 14.6162 45.7963 14.8734C45.9249 15.1627 46.0374 15.452 46.1419 15.7494C46.2303 15.9744 46.3107 16.1994 46.383 16.4325C46.4473 16.6173 46.5116 16.8102 46.576 17.0111C46.6563 17.2683 46.7287 17.5255 46.801 17.7827C46.8492 17.9675 46.8974 18.1443 46.9376 18.3292C47.0824 18.8998 47.2028 19.4704 47.2912 20.0571C47.3234 20.2259 47.3475 20.3946 47.3716 20.5714C47.4118 20.8286 47.4439 21.0938 47.468 21.351C47.4841 21.4635 47.5002 21.576 47.5082 21.6805C47.5323 21.9618 47.5564 22.2431 47.5645 22.5324C47.5806 22.653 47.5886 22.7655 47.5886 22.886C47.6045 23.2236 47.6125 23.5611 47.6125 23.9067Z" fill="#235CA0"/>
<path d="M24.3066 6.79785V17.075" stroke="#235CA0" stroke-miterlimit="10" stroke-linecap="round" stroke-linejoin="round"/>
<path d="M31.5312 22.2911L41.0336 20.1504" stroke="#235CA0" stroke-miterlimit="10" stroke-linecap="round" stroke-linejoin="round"/>
<path d="M28.7988 30.832L33.6587 38.3025" stroke="#235CA0" stroke-miterlimit="10" stroke-linecap="round" stroke-linejoin="round"/>
<path d="M19.8012 30.8223L14.9385 38.3018" stroke="#235CA0" stroke-miterlimit="10" stroke-linecap="round" stroke-linejoin="round"/>
<path d="M17.0742 22.314L7.56055 20.1875" stroke="#235CA0" stroke-miterlimit="10" stroke-linecap="round" stroke-linejoin="round"/>
</svg>
