<svg width="18" height="40" viewBox="0 0 18 40" fill="none" xmlns="http://www.w3.org/2000/svg">
<path d="M13.5 0C11.025 0 9 2.25 9 5C9 7.75 11.025 10 13.5 10C15.975 10 18 7.75 18 5C18 2.25 15.975 0 13.5 0ZM6.75 12.5C3.015 12.5 0 15.85 0 20H4.5C4.5 18.6 5.49 17.5 6.75 17.5C8.01 17.5 9 18.6 9 20C9 21.4 4.5 28.2 4.5 32.5C4.5 36.8 7.515 40 11.25 40C14.985 40 18 36.65 18 32.5H13.5C13.5 33.9 12.51 35 11.25 35C9.99 35 9 33.9 9 32.5C9 30.7 13.5 23.3 13.5 20C13.5 15.95 10.485 12.5 6.75 12.5Z" fill="#FAFBFB"/>
</svg>
