<svg width="24" height="24" viewBox="0 0 24 24" fill="none" xmlns="http://www.w3.org/2000/svg">
<path d="M22.6132 11.8066C22.6132 12.4066 22.5648 12.9953 22.4679 13.5692C22.2033 15.2051 21.5661 16.718 20.6457 18.0185V18.0223C19.0657 20.2693 16.6472 21.8866 13.8487 22.4194C13.1854 22.5461 12.5034 22.6132 11.8066 22.6132C11.6203 22.6132 11.434 22.6095 11.2514 22.5983H11.2253C11.0501 22.5871 10.875 22.576 10.6999 22.5573C10.685 22.5573 10.6701 22.5536 10.6551 22.5536C10.5098 22.5387 10.3644 22.5201 10.2191 22.4977C10.1781 22.4902 10.1334 22.4865 10.0924 22.4791C9.98063 22.4604 9.87256 22.4418 9.76077 22.4194C9.58563 22.3859 9.41049 22.3486 9.23534 22.3039C9.16454 22.289 9.09001 22.2704 9.01921 22.2518C8.92232 22.2257 8.82544 22.1959 8.72855 22.166C8.64284 22.14 8.55341 22.1139 8.46398 22.0841C8.3745 22.058 8.28883 22.0282 8.20313 21.9946C8.13232 21.9685 8.06152 21.9425 7.99072 21.9164C7.94973 21.9052 7.91247 21.8903 7.87148 21.8717C7.72614 21.812 7.58081 21.7524 7.43921 21.689C7.24544 21.6033 7.05539 21.5102 6.86534 21.4133C6.77964 21.3686 6.69765 21.3238 6.61195 21.2754C6.51506 21.2232 6.4219 21.1711 6.32874 21.1152C6.2244 21.0518 6.12006 20.9922 6.01572 20.9251C5.98591 20.9065 5.9561 20.8841 5.92625 20.8655C5.78092 20.7723 5.63559 20.6717 5.49771 20.5711C5.37847 20.4891 5.26295 20.3997 5.15115 20.314C5.13997 20.3065 5.13252 20.2991 5.12134 20.2879C5.02073 20.2097 4.92384 20.1314 4.83068 20.0494C4.78224 20.0122 4.73379 19.9712 4.68908 19.9302C4.65181 19.8967 4.61828 19.8668 4.58101 19.8333C4.57356 19.8296 4.56983 19.8259 4.56611 19.8221C4.55493 19.811 4.54375 19.7998 4.53257 19.7923C4.52512 19.7886 4.52139 19.7811 4.51766 19.7774C4.51021 19.7737 4.50648 19.77 4.50276 19.7625C4.45431 19.7215 4.4096 19.6805 4.36488 19.6358C4.31644 19.5911 4.27172 19.5501 4.23073 19.5054C4.22328 19.4979 4.21582 19.4905 4.2121 19.483C4.17483 19.4458 4.13757 19.4122 4.1003 19.3787C4.04377 19.3222 3.9916 19.2585 3.9363 19.2C3.93385 19.1975 3.93131 19.1949 3.92885 19.1924C3.92915 19.1925 3.92941 19.1927 3.92971 19.1929C3.80517 19.0608 3.67978 18.9302 3.55994 18.7899C3.4705 18.6856 3.38107 18.5775 3.29536 18.4657C3.17615 18.3129 3.06063 18.1601 2.9488 17.9999C2.03211 16.6919 1.39861 15.1716 1.13404 13.5245C1.04472 12.9655 1 12.3917 1 11.8066C1 9.50741 1.71547 7.3759 2.94519 5.62448C4.13392 3.91778 5.80708 2.57255 7.76345 1.78627C9.0118 1.27575 10.3757 1 11.8066 1C13.2338 1 14.5977 1.27575 15.8423 1.78255C16.7814 2.15519 17.6534 2.66198 18.4396 3.28057C18.6483 3.4408 18.8533 3.61222 19.0508 3.79481H19.0545C19.252 3.97368 19.442 4.16 19.6246 4.35378C19.9041 4.64071 20.1612 4.94255 20.4035 5.26302C20.4817 5.36736 20.5637 5.47543 20.6382 5.58349V5.58722C20.6382 5.58722 20.6382 5.58349 20.6419 5.58722C20.8283 5.84434 21.0034 6.11637 21.1599 6.39585C21.2158 6.48901 21.268 6.58217 21.3202 6.67906C21.3835 6.79458 21.4432 6.90637 21.4953 7.02189C21.5363 7.10014 21.5736 7.1784 21.6108 7.26038C21.6705 7.37963 21.7226 7.49887 21.7711 7.61812C21.8307 7.75227 21.8829 7.88642 21.9313 8.0243C21.9723 8.12864 22.0096 8.23298 22.0431 8.34104C22.0729 8.42675 22.1027 8.51618 22.1326 8.60934C22.1698 8.72859 22.2034 8.84783 22.2369 8.96708C22.2593 9.05279 22.2816 9.13477 22.3003 9.22048C22.3674 9.48505 22.4232 9.74963 22.4642 10.0217C22.4791 10.0999 22.4903 10.1782 22.5015 10.2601C22.5201 10.3794 22.535 10.5024 22.5462 10.6216C22.5537 10.6738 22.5611 10.7259 22.5648 10.7744C22.576 10.9048 22.5872 11.0352 22.5909 11.1694C22.5984 11.2253 22.6021 11.2775 22.6021 11.3334C22.6095 11.4899 22.6132 11.6464 22.6132 11.8066Z" fill="white"/>
<path d="M22.6131 11.807C22.6131 12.4069 22.5646 12.9957 22.4677 13.5696C22.2032 15.2055 21.566 16.7184 20.6455 18.0189V18.0227C19.0655 20.2697 16.6471 21.887 13.8485 22.4198C13.1852 22.5465 12.5033 22.6136 11.8065 22.6136C11.6201 22.6136 11.4338 22.6099 11.2512 22.5987H11.2251C11.05 22.5875 10.8749 22.5763 10.6997 22.5577C10.6848 22.5577 10.6699 22.554 10.655 22.554C10.5096 22.5391 10.3643 22.5204 10.219 22.4981C10.178 22.4906 10.1333 22.4869 10.0923 22.4795C9.98049 22.4608 9.87242 22.4422 9.76063 22.4198C9.58549 22.3863 9.41034 22.349 9.2352 22.3043C9.1644 22.2894 9.08987 22.2708 9.01907 22.2521C8.92218 22.2261 8.8253 22.1962 8.72841 22.1664C8.6427 22.1404 8.55327 22.1143 8.46383 22.0845C8.37436 22.0584 8.28869 22.0286 8.20299 21.995C8.13218 21.9689 8.06138 21.9429 7.99058 21.9168C7.94959 21.9056 7.91233 21.8907 7.87133 21.872C7.726 21.8124 7.58067 21.7528 7.43907 21.6894C7.34218 21.6447 7.2453 21.6 7.15214 21.5553C7.05525 21.5105 6.96209 21.4621 6.8652 21.4137C6.77949 21.3689 6.69751 21.3242 6.61181 21.2758C6.51492 21.2236 6.42176 21.1714 6.3286 21.1155C6.22426 21.0522 6.11992 20.9926 6.01558 20.9255C5.98577 20.9069 5.95596 20.8845 5.92611 20.8659C5.78078 20.7727 5.63545 20.6721 5.49757 20.5715C5.37832 20.4895 5.26281 20.4001 5.15101 20.3144C5.13983 20.3069 5.13238 20.2995 5.1212 20.2883C5.02059 20.2101 4.9237 20.1318 4.83054 20.0498C4.82309 20.0461 4.81564 20.0387 4.80815 20.0312C4.7113 19.9492 4.61437 19.8635 4.51748 19.7778C4.51003 19.7741 4.50631 19.7703 4.50258 19.7629C4.40569 19.6697 4.30508 19.5803 4.21192 19.4834C4.11503 19.3865 4.02187 19.2896 3.92871 19.1928C5.41555 20.0647 7.13343 20.5976 8.96683 20.6647C9.10843 20.6721 9.25003 20.6759 9.39164 20.6759C11.9107 20.6759 14.2323 19.8151 16.0694 18.3655C18.3015 16.6103 19.8256 13.9944 20.1386 11.017C20.1796 10.6406 20.1982 10.2568 20.1982 9.86926C20.1982 9.09789 20.1163 8.34888 19.9635 7.62596V7.62223C19.5499 5.66586 18.6108 3.91445 17.2991 2.50586C17.6941 2.74062 18.0779 3.00147 18.4394 3.28095C18.6481 3.44492 18.853 3.61633 19.0505 3.7952C19.0505 3.7952 19.0505 3.79147 19.0542 3.7952C19.2517 3.97779 19.4418 4.16039 19.6244 4.35416C19.9896 4.73798 20.3324 5.15162 20.638 5.58761C20.8243 5.84846 20.9994 6.11676 21.1597 6.39624C21.2156 6.4894 21.2677 6.58256 21.3199 6.67945C21.3833 6.79497 21.4429 6.90676 21.4951 7.02228C21.5361 7.10053 21.5733 7.17879 21.6106 7.26077C21.6702 7.38001 21.7224 7.49926 21.7708 7.6185C21.8305 7.75265 21.8826 7.88681 21.9311 8.02468C21.9721 8.12902 22.0093 8.23336 22.0429 8.34143C22.0727 8.42714 22.1025 8.51657 22.1323 8.60973C22.1696 8.72898 22.2031 8.84822 22.2367 8.96747C22.259 9.05317 22.2814 9.13516 22.3 9.22086C22.3671 9.48544 22.423 9.75001 22.464 10.022C22.4789 10.1003 22.4901 10.1786 22.5012 10.2605C22.5199 10.3798 22.5348 10.5027 22.546 10.622C22.5534 10.6742 22.5609 10.7263 22.5646 10.7748C22.5758 10.9052 22.587 11.0356 22.5907 11.1698C22.5981 11.2257 22.6019 11.2778 22.6019 11.3337C22.6094 11.4903 22.6131 11.6468 22.6131 11.807Z" fill="#D0CFCE"/>
<path d="M22.6132 11.8066C22.6132 12.4066 22.5648 12.9953 22.4679 13.5692C22.2033 15.2051 21.5661 16.718 20.6457 18.0185V18.0223C19.0657 20.2693 16.6472 21.8866 13.8487 22.4194C13.1854 22.5461 12.5034 22.6132 11.8066 22.6132C11.6203 22.6132 11.434 22.6095 11.2514 22.5983H11.2253C11.0501 22.5871 10.875 22.576 10.6999 22.5573C10.685 22.5573 10.6701 22.5536 10.6551 22.5536C10.5098 22.5387 10.3644 22.5201 10.2191 22.4977C10.1781 22.4902 10.1334 22.4865 10.0924 22.4791C9.98063 22.4604 9.87256 22.4418 9.76077 22.4194C9.58563 22.3859 9.41049 22.3486 9.23534 22.3039C9.16454 22.289 9.09001 22.2704 9.01921 22.2518C8.92232 22.2257 8.82544 22.1959 8.72855 22.166C8.64284 22.14 8.55341 22.1139 8.46398 22.0841C8.3745 22.058 8.28883 22.0282 8.20313 21.9946C8.13232 21.9685 8.06152 21.9425 7.99072 21.9164C7.94973 21.9052 7.91247 21.8903 7.87148 21.8717C7.72614 21.812 7.58081 21.7524 7.43921 21.689C7.24544 21.6033 7.05539 21.5102 6.86534 21.4133C6.77964 21.3686 6.69765 21.3238 6.61195 21.2754C6.51506 21.2232 6.4219 21.1711 6.32874 21.1152C6.2244 21.0518 6.12006 20.9922 6.01572 20.9251C5.98591 20.9065 5.9561 20.8841 5.92625 20.8655C5.78092 20.7723 5.63559 20.6717 5.49771 20.5711C5.37847 20.4891 5.26295 20.3997 5.15115 20.314C5.13997 20.3065 5.13252 20.2991 5.12134 20.2879C5.02073 20.2097 4.92384 20.1314 4.83068 20.0494C4.78224 20.0122 4.73379 19.9712 4.68908 19.9302C4.65181 19.8967 4.61828 19.8668 4.58101 19.8333C4.57356 19.8296 4.56983 19.8259 4.56611 19.8221C4.55493 19.811 4.54375 19.7998 4.53257 19.7923C4.52512 19.7886 4.52139 19.7811 4.51766 19.7774C4.51021 19.7737 4.50648 19.77 4.50276 19.7625C4.45431 19.7215 4.4096 19.6805 4.36488 19.6358C4.31644 19.5911 4.27172 19.5501 4.23073 19.5054C4.22328 19.4979 4.21582 19.4905 4.2121 19.483C4.17483 19.4458 4.13757 19.4122 4.1003 19.3787C4.04377 19.3222 3.9916 19.2585 3.9363 19.2C3.93385 19.1975 3.93131 19.1949 3.92885 19.1924C3.92915 19.1925 3.92941 19.1927 3.92971 19.1929C3.80517 19.0608 3.67978 18.9302 3.55994 18.7899C3.4705 18.6856 3.38107 18.5775 3.29536 18.4657C3.17615 18.3129 3.06063 18.1601 2.9488 17.9999C2.03211 16.6919 1.39861 15.1716 1.13404 13.5245C1.04472 12.9655 1 12.3917 1 11.8066C1 9.50741 1.71547 7.3759 2.94519 5.62448C4.13392 3.91778 5.80708 2.57255 7.76345 1.78627C9.0118 1.27575 10.3757 1 11.8066 1C13.2338 1 14.5977 1.27575 15.8423 1.78255C16.7814 2.15519 17.6534 2.66198 18.4396 3.28057C18.6483 3.4408 18.8533 3.61222 19.0508 3.79481H19.0545C19.252 3.97368 19.442 4.16 19.6246 4.35378C19.9041 4.64071 20.1612 4.94255 20.4035 5.26302C20.4817 5.36736 20.5637 5.47543 20.6382 5.58349V5.58722C20.6382 5.58722 20.6382 5.58349 20.6419 5.58722C20.8283 5.84434 21.0034 6.11637 21.1599 6.39585C21.2158 6.48901 21.268 6.58217 21.3202 6.67906C21.3835 6.79458 21.4432 6.90637 21.4953 7.02189C21.5363 7.10014 21.5736 7.1784 21.6108 7.26038C21.6705 7.37963 21.7226 7.49887 21.7711 7.61812C21.8307 7.75227 21.8829 7.88642 21.9313 8.0243C21.9723 8.12864 22.0096 8.23298 22.0431 8.34104C22.0729 8.42675 22.1027 8.51618 22.1326 8.60934C22.1698 8.72859 22.2034 8.84783 22.2369 8.96708C22.2593 9.05279 22.2816 9.13477 22.3003 9.22048C22.3674 9.48505 22.4232 9.74963 22.4642 10.0217C22.4791 10.0999 22.4903 10.1782 22.5015 10.2601C22.5201 10.3794 22.535 10.5024 22.5462 10.6216C22.5537 10.6738 22.5611 10.7259 22.5648 10.7744C22.576 10.9048 22.5872 11.0352 22.5909 11.1694C22.5984 11.2253 22.6021 11.2775 22.6021 11.3334C22.6095 11.4899 22.6132 11.6464 22.6132 11.8066Z" stroke="#235CA0" stroke-miterlimit="10" stroke-linecap="round" stroke-linejoin="round"/>
<path d="M11.1492 8.85217L8.85543 10.5187C8.46359 10.8034 8.29967 11.308 8.44932 11.7686L9.32548 14.4651C9.47513 14.9257 9.90438 15.2375 10.3887 15.2375H13.224C13.7083 15.2375 14.1375 14.9257 14.2872 14.4651L15.1634 11.7686C15.313 11.308 15.1491 10.8034 14.7573 10.5187L12.4635 8.85217C12.0716 8.56751 11.5411 8.56751 11.1492 8.85217Z" fill="#235CA0"/>
<path d="M15.6378 2.185L12.5039 3.72028C12.284 3.82462 12.0455 3.87679 11.807 3.87307C11.5946 3.86938 11.3822 3.8209 11.181 3.72774L7.97255 2.19991C7.81604 2.12538 7.73405 1.95024 7.76387 1.78627C9.01222 1.27575 10.3761 1 11.807 1C13.2342 1 14.5981 1.27576 15.8427 1.78255C15.8726 1.94278 15.7943 2.11047 15.6378 2.185Z" fill="#235CA0"/>
<path d="M9.76115 22.4192C9.58601 22.3856 9.41086 22.3484 9.23572 22.3036C9.16492 22.2887 9.09039 22.2701 9.01959 22.2515C8.9227 22.2254 8.82582 22.1956 8.72893 22.1658C8.64322 22.1397 8.55379 22.1136 8.46435 22.0838C8.37488 22.0577 8.28921 22.0279 8.2035 21.9944C8.1327 21.9683 8.0619 21.9422 7.9911 21.9161C7.95011 21.9049 7.91284 21.89 7.87185 21.8714C7.72652 21.8118 7.58119 21.7521 7.43959 21.6888C7.24507 21.6029 7.05454 21.5097 6.86624 21.4126C6.78057 21.3687 6.69654 21.3223 6.61221 21.2762C6.51693 21.2238 6.42254 21.17 6.32897 21.1148C6.22377 21.053 6.11898 20.9908 6.01606 20.9256C5.98558 20.9061 5.9561 20.8853 5.92581 20.8656C4.75959 20.1092 3.74622 19.137 2.94922 17.9996C3.02002 17.8729 3.16535 17.7946 3.32559 17.8133L6.80606 18.2381C7.04455 18.2679 7.26814 18.3499 7.46191 18.4803C7.6445 18.6033 7.80101 18.7635 7.91653 18.9536L8.96738 20.664L9.78347 21.998C9.86549 22.1322 9.85431 22.2999 9.76115 22.4192Z" fill="#235CA0"/>
<path d="M4.04076 10.0808C3.98859 10.297 3.88797 10.5019 3.74637 10.6808L1.54778 13.4011C1.44344 13.5278 1.27575 13.5725 1.13415 13.524C1.04472 12.9651 1 12.3912 1 11.8061C1 9.50695 1.71547 7.37544 2.94519 5.62402C3.1017 5.64266 3.23958 5.75445 3.27311 5.91841L4.04821 9.39516C4.10038 9.62247 4.09665 9.85723 4.04076 10.0808Z" fill="#235CA0"/>
<path d="M20.6454 18.0182V18.0219C19.0654 20.269 16.647 21.8862 13.8484 22.4191C13.7515 22.2999 13.7404 22.1285 13.8223 21.9906L15.6818 18.9573C15.801 18.7635 15.9576 18.6033 16.1439 18.4803C16.3377 18.3536 16.5575 18.2716 16.7923 18.2418L20.2616 17.817C20.4255 17.7984 20.5746 17.8841 20.6454 18.0182Z" fill="#235CA0"/>
<path d="M22.6131 11.8062C22.6131 12.4061 22.5646 12.9949 22.4677 13.5688C22.3336 13.5986 22.1883 13.5539 22.0951 13.4383L20.1387 11.0162L19.8667 10.6808C19.576 10.3231 19.4643 9.8498 19.5686 9.39518L19.9636 7.62513V7.6214L20.3511 5.87371C20.381 5.72838 20.4965 5.61663 20.6381 5.58678C20.6381 5.58305 20.6381 5.58305 20.6418 5.58678C20.8281 5.8439 21.0033 6.11593 21.1598 6.39541C21.2157 6.48857 21.2678 6.58173 21.32 6.67862C21.3834 6.79414 21.443 6.90593 21.4952 7.02145C21.5362 7.0997 21.5734 7.17796 21.6107 7.25994C21.6703 7.37919 21.7225 7.49843 21.7709 7.61768C21.8306 7.75183 21.8827 7.88598 21.9312 8.02386C21.9722 8.1282 22.0094 8.23254 22.043 8.3406C22.0728 8.42631 22.1026 8.51574 22.1324 8.6089C22.1697 8.72815 22.2032 8.84739 22.2368 8.96664C22.2591 9.05235 22.2815 9.13433 22.3001 9.22004C22.3672 9.48461 22.4231 9.74919 22.4641 10.0212C22.479 10.0995 22.4902 10.1777 22.5014 10.2597C22.52 10.379 22.5349 10.5019 22.5461 10.6212C22.5535 10.6733 22.561 10.7255 22.5647 10.774C22.5759 10.9044 22.5871 11.0348 22.5908 11.169C22.5982 11.2248 22.602 11.277 22.602 11.3329C22.6093 11.4894 22.6131 11.6459 22.6131 11.8062Z" fill="#235CA0"/>
<path d="M11.8066 3.87402V8.63925" stroke="#235CA0" stroke-miterlimit="10" stroke-linecap="round" stroke-linejoin="round"/>
<path d="M15.1562 11.058L19.5622 10.0654" stroke="#235CA0" stroke-miterlimit="10" stroke-linecap="round" stroke-linejoin="round"/>
<path d="M13.8896 15.0176L16.143 18.4814" stroke="#235CA0" stroke-miterlimit="10" stroke-linecap="round" stroke-linejoin="round"/>
<path d="M9.7176 15.0137L7.46289 18.4817" stroke="#235CA0" stroke-miterlimit="10" stroke-linecap="round" stroke-linejoin="round"/>
<path d="M8.45321 11.068L4.04199 10.082" stroke="#235CA0" stroke-miterlimit="10" stroke-linecap="round" stroke-linejoin="round"/>
</svg>
