<svg width="23" height="23" viewBox="0 0 23 23" fill="none" xmlns="http://www.w3.org/2000/svg">
<path d="M23 16.3185C23 20.5045 20.5045 23 16.3185 23H14.95C14.3175 23 13.8 22.4825 13.8 21.85V15.2145C13.8 14.904 14.053 14.6395 14.3635 14.6395L16.3875 14.605C16.5485 14.5935 16.6865 14.4785 16.721 14.3175L17.1235 12.121C17.158 11.914 16.997 11.7185 16.7785 11.7185L14.329 11.753C14.007 11.753 13.754 11.5 13.7425 11.1895L13.6965 8.372C13.6965 8.188 13.846 8.02701 14.0415 8.02701L16.8015 7.981C16.997 7.981 17.1465 7.83151 17.1465 7.63601L17.1005 4.87599C17.1005 4.68049 16.951 4.531 16.7555 4.531L13.6505 4.57701C11.7415 4.61151 10.2235 6.1755 10.258 8.0845L10.3155 11.247C10.327 11.569 10.074 11.822 9.752 11.8335L8.372 11.8565C8.1765 11.8565 8.02701 12.006 8.02701 12.2015L8.06151 14.3865C8.06151 14.582 8.211 14.7315 8.4065 14.7315L9.7865 14.7085C10.1085 14.7085 10.3615 14.9615 10.373 15.272L10.4765 21.827C10.488 22.471 9.9705 23 9.3265 23H6.6815C2.4955 23 0 20.5045 0 16.307V6.6815C0 2.4955 2.4955 0 6.6815 0H16.3185C20.5045 0 23 2.4955 23 6.6815V16.3185Z" fill="white"/>
</svg>
