<svg width="17" height="21" viewBox="0 0 17 21" fill="none" xmlns="http://www.w3.org/2000/svg">
<mask id="path-1-inside-1_2225_844" fill="white">
<path d="M8.49997 20.9208C8.26308 20.9208 8.02619 20.8416 7.83917 20.672L0.271178 13.8079C-0.0903926 13.48 -0.0903926 12.9372 0.271178 12.6092C0.632748 12.2813 1.23121 12.2813 1.59278 12.6092L8.49997 18.874L15.4072 12.6092C15.7688 12.2813 16.3673 12.2813 16.7288 12.6092C17.0904 12.9372 17.0904 13.48 16.7288 13.8079L9.16078 20.672C8.97376 20.8416 8.73687 20.9208 8.49997 20.9208Z"/>
</mask>
<path d="M8.49997 20.9208C8.26308 20.9208 8.02619 20.8416 7.83917 20.672L0.271178 13.8079C-0.0903926 13.48 -0.0903926 12.9372 0.271178 12.6092C0.632748 12.2813 1.23121 12.2813 1.59278 12.6092L8.49997 18.874L15.4072 12.6092C15.7688 12.2813 16.3673 12.2813 16.7288 12.6092C17.0904 12.9372 17.0904 13.48 16.7288 13.8079L9.16078 20.672C8.97376 20.8416 8.73687 20.9208 8.49997 20.9208Z" fill="#091E42"/>
<path d="M7.83917 20.672L6.49553 22.1534L6.49554 22.1534L7.83917 20.672ZM0.271178 13.8079L1.61482 12.3265L1.61481 12.3265L0.271178 13.8079ZM1.59278 12.6092L2.93642 11.1278L2.93642 11.1278L1.59278 12.6092ZM8.49997 18.874L7.15633 20.3554L8.49997 21.5741L9.84361 20.3554L8.49997 18.874ZM15.4072 12.6092L16.7509 14.0907V14.0907L15.4072 12.6092ZM16.7288 13.8079L15.3852 12.3265V12.3265L16.7288 13.8079ZM9.16078 20.672L10.5044 22.1534L9.16078 20.672ZM8.49997 18.9208C8.70693 18.9208 8.96451 18.9926 9.18281 19.1906L6.49554 22.1534C7.08788 22.6907 7.81924 22.9208 8.49997 22.9208V18.9208ZM9.18281 19.1906L1.61482 12.3265L-1.07246 15.2893L6.49553 22.1534L9.18281 19.1906ZM1.61481 12.3265C2.1284 12.7923 2.1284 13.6249 1.61481 14.0907L-1.07246 11.1278C-2.30918 12.2495 -2.30918 14.1677 -1.07246 15.2893L1.61481 12.3265ZM1.61481 14.0907C1.38803 14.2964 1.13248 14.3633 0.931979 14.3633C0.731479 14.3633 0.475927 14.2964 0.249145 14.0907L2.93642 11.1278C1.81251 10.1084 0.0514448 10.1084 -1.07246 11.1278L1.61481 14.0907ZM0.249139 14.0907L7.15633 20.3554L9.84362 17.3926L2.93642 11.1278L0.249139 14.0907ZM9.84361 20.3554L16.7509 14.0907L14.0636 11.1278L7.15634 17.3926L9.84361 20.3554ZM16.7509 14.0907C16.5241 14.2964 16.2685 14.3633 16.068 14.3633C15.8675 14.3633 15.612 14.2964 15.3852 14.0907L18.0725 11.1278C16.9486 10.1084 15.1875 10.1084 14.0636 11.1278L16.7509 14.0907ZM15.3852 14.0907C14.8716 13.6249 14.8716 12.7923 15.3852 12.3265L18.0725 15.2893C19.3092 14.1677 19.3092 12.2495 18.0725 11.1278L15.3852 14.0907ZM15.3852 12.3265L7.81714 19.1906L10.5044 22.1534L18.0725 15.2893L15.3852 12.3265ZM7.81714 19.1906C8.03545 18.9926 8.29302 18.9208 8.49997 18.9208V22.9208C9.18071 22.9208 9.91207 22.6907 10.5044 22.1534L7.81714 19.1906Z" fill="black" mask="url(#path-1-inside-1_2225_844)"/>
<mask id="path-3-inside-2_2225_844" fill="white">
<path d="M8.50053 20.728C7.98934 20.728 7.56543 20.3435 7.56543 19.8799V0.848117C7.56543 0.38448 7.98934 0 8.50053 0C9.01171 0 9.43562 0.38448 9.43562 0.848117V19.8799C9.43562 20.3435 9.01171 20.728 8.50053 20.728Z"/>
</mask>
<path d="M8.50053 20.728C7.98934 20.728 7.56543 20.3435 7.56543 19.8799V0.848117C7.56543 0.38448 7.98934 0 8.50053 0C9.01171 0 9.43562 0.38448 9.43562 0.848117V19.8799C9.43562 20.3435 9.01171 20.728 8.50053 20.728Z" fill="#091E42"/>
<path d="M8.50053 18.728C8.74628 18.728 8.99029 18.8198 9.18492 18.9964C9.38101 19.1742 9.56543 19.4808 9.56543 19.8799H5.56543C5.56543 21.6273 7.07298 22.728 8.50053 22.728V18.728ZM9.56543 19.8799V0.848117H5.56543V19.8799H9.56543ZM9.56543 0.848117C9.56543 1.2472 9.38101 1.55378 9.18492 1.73163C8.99029 1.90816 8.74628 2 8.50053 2V-2C7.07298 -2 5.56543 -0.899341 5.56543 0.848117H9.56543ZM8.50053 2C8.25477 2 8.01077 1.90816 7.81613 1.73163C7.62004 1.55378 7.43562 1.2472 7.43562 0.848117H11.4356C11.4356 -0.899341 9.92807 -2 8.50053 -2V2ZM7.43562 0.848117V19.8799H11.4356V0.848117H7.43562ZM7.43562 19.8799C7.43562 19.4808 7.62004 19.1742 7.81613 18.9964C8.01077 18.8198 8.25477 18.728 8.50053 18.728V22.728C9.92807 22.728 11.4356 21.6273 11.4356 19.8799H7.43562Z" fill="black" mask="url(#path-3-inside-2_2225_844)"/>
</svg>
