<svg width="32" height="32" viewBox="0 0 32 32" fill="none" xmlns="http://www.w3.org/2000/svg">
<mask id="mask0_2212_1891" style="mask-type:luminance" maskUnits="userSpaceOnUse" x="0" y="0" width="32" height="32">
<path d="M0 0H31.2803V31.2803H0V0Z" fill="white"/>
</mask>
<g mask="url(#mask0_2212_1891)">
<path fill-rule="evenodd" clip-rule="evenodd" d="M20.8535 3.15049V8.58111C20.8535 8.88115 21.1455 9.12417 21.5052 9.12417C21.8649 9.12417 22.1569 8.88115 22.1569 8.58111V3.15049C22.1569 2.85046 21.8649 2.60742 21.5052 2.60742C21.1455 2.60742 20.8535 2.85046 20.8535 3.15049Z" fill="#235CA0"/>
<path fill-rule="evenodd" clip-rule="evenodd" d="M9.12305 3.15049V8.58111C9.12305 8.88115 9.415 9.12417 9.77472 9.12417C10.1344 9.12417 10.4264 8.88115 10.4264 8.58111V3.15049C10.4264 2.85046 10.1344 2.60742 9.77472 2.60742C9.415 2.60742 9.12305 2.85046 9.12305 3.15049Z" fill="#235CA0"/>
<path fill-rule="evenodd" clip-rule="evenodd" d="M3.91016 8.43313V26.7582C3.91016 28.5359 5.34775 29.9774 7.12029 29.9774H24.1602C25.9328 29.9774 27.3704 28.5359 27.3704 26.7582V8.43313C27.3704 6.65537 25.9328 5.21387 24.1602 5.21387C19.8826 5.21387 11.3979 5.21387 7.12029 5.21387C5.34775 5.21387 3.91016 6.65537 3.91016 8.43313ZM10.4269 22.1573C11.1463 22.1573 11.7302 22.7412 11.7302 23.4607C11.7302 24.1801 11.1463 24.764 10.4269 24.764C9.70743 24.764 9.12354 24.1801 9.12354 23.4607C9.12354 22.7412 9.70743 22.1573 10.4269 22.1573ZM15.6403 22.1573C16.3597 22.1573 16.9436 22.7412 16.9436 23.4607C16.9436 24.1801 16.3597 24.764 15.6403 24.764C14.9208 24.764 14.3369 24.1801 14.3369 23.4607C14.3369 22.7412 14.9208 22.1573 15.6403 22.1573ZM20.8536 22.1573C21.5731 22.1573 22.157 22.7412 22.157 23.4607C22.157 24.1801 21.5731 24.764 20.8536 24.764C20.1342 24.764 19.5503 24.1801 19.5503 23.4607C19.5503 22.7412 20.1342 22.1573 20.8536 22.1573ZM10.4269 16.944C11.1463 16.944 11.7302 17.5279 11.7302 18.2473C11.7302 18.9668 11.1463 19.5507 10.4269 19.5507C9.70743 19.5507 9.12354 18.9668 9.12354 18.2473C9.12354 17.5279 9.70743 16.944 10.4269 16.944ZM15.6403 16.944C16.3597 16.944 16.9436 17.5279 16.9436 18.2473C16.9436 18.9668 16.3597 19.5507 15.6403 19.5507C14.9208 19.5507 14.3369 18.9668 14.3369 18.2473C14.3369 17.5279 14.9208 16.944 15.6403 16.944ZM20.8536 16.944C21.5731 16.944 22.157 17.5279 22.157 18.2473C22.157 18.9668 21.5731 19.5507 20.8536 19.5507C20.1342 19.5507 19.5503 18.9668 19.5503 18.2473C19.5503 17.5279 20.1342 16.944 20.8536 16.944ZM26.1361 13.0339H5.14442V8.43313C5.14442 7.33832 6.02939 6.45206 7.12029 6.45206H24.1602C25.2511 6.45206 26.1361 7.33832 26.1361 8.43313V13.0339Z" fill="#235CA0"/>
</g>
</svg>
