<?xml version="1.0" encoding="UTF-8"?>
<svg version="1.1" xmlns="http://www.w3.org/2000/svg" width="512" height="512">
<path d="M0 0 C1.91024331 -0.00761181 1.91024331 -0.00761181 3.85907739 -0.0153774 C5.28045424 -0.0159791 6.70183113 -0.01647817 8.12320805 -0.01688576 C9.62692299 -0.0209 11.13063685 -0.02533816 12.63434941 -0.03016531 C16.77737923 -0.04214137 20.92039741 -0.04778168 25.06344116 -0.05234647 C29.52788011 -0.05829882 33.99230511 -0.06990975 38.45673466 -0.08063698 C49.24539844 -0.10517199 60.03406684 -0.11979108 70.82274994 -0.13269705 C73.87010158 -0.1364086 76.91745275 -0.14038188 79.96480393 -0.14444971 C98.88802782 -0.1696892 117.81125243 -0.19174262 136.73448944 -0.20417786 C141.11886885 -0.20710757 145.50324824 -0.21006923 149.8876276 -0.21308327 C150.97734838 -0.21382932 152.06706916 -0.21457537 153.18981177 -0.21534403 C170.83518083 -0.22799248 188.480449 -0.26120773 206.12577092 -0.3028851 C224.24228332 -0.34532446 242.35874412 -0.36887533 260.47530609 -0.37409842 C270.64682155 -0.37751059 280.81817945 -0.38924272 290.98964596 -0.42220116 C299.65417507 -0.4502305 308.31851434 -0.4611884 316.98308527 -0.4500057 C321.40185092 -0.44482615 325.8202192 -0.44765977 330.23892689 -0.47247124 C334.29023384 -0.4950291 338.34085948 -0.49417372 342.3921789 -0.47526737 C343.85192562 -0.47247643 345.3117192 -0.47801524 346.77139085 -0.4930803 C360.69429504 -0.62790277 371.44050139 3.11410907 381.59294987 12.68779564 C388.19457446 19.6905316 392.1933996 29.08377897 391.93157291 38.6863308 C391.80425018 44.32058418 391.72907096 49.95186256 391.69633102 55.58750916 C391.67280322 58.98037831 391.6254578 62.36916695 391.51995182 65.76054955 C390.97046363 85.78167664 394.26831264 99.31431656 405.11766911 116.20689964 C408.21653449 121.16663395 410.90309979 126.34471243 413.63591862 131.51201439 C416.76919073 137.31723878 419.92448124 143.10899498 423.13591862 148.87138939 C423.64163395 149.78098412 424.14734928 150.69057884 424.66838932 151.62773705 C425.61551263 153.32786357 426.56687093 155.02564096 427.52336979 156.72051048 C431.61652463 164.07024018 433.31816547 169.97919431 433.26091862 178.38701439 C433.25600407 179.23312279 433.25108952 180.07923119 433.24602604 180.95097923 C433.13069086 187.09864003 432.52334313 192.48677518 429.94841862 198.13701439 C429.61970768 198.87693626 429.29099674 199.61685814 428.95232487 200.37920189 C422.60918515 213.06548133 412.23482321 221.27679294 399.30779362 226.47295189 C396.74906262 227.19312452 394.59324882 227.18367495 391.94841862 227.13701439 C391.95210579 228.21946591 391.95579296 229.30191744 391.95959187 230.41717052 C392.04845351 256.77514185 392.11415176 283.13309371 392.1556673 309.49118328 C392.17627837 322.23784591 392.2043713 334.98440948 392.25017643 347.73100853 C392.29008857 358.84302452 392.31586201 369.95496877 392.3247726 381.06705445 C392.32997988 386.94894271 392.34218889 392.83062574 392.37133884 398.71244812 C392.39857691 404.25361616 392.40684658 409.79449525 392.40084934 415.33572388 C392.40194582 417.36455419 392.4098494 419.3933946 392.42524052 421.42216682 C392.53568363 436.73701974 391.14957495 449.49679873 380.06560612 461.10967064 C372.21922722 468.35603232 363.2206297 472.37791483 352.42026329 472.39707661 C350.50329878 472.40767499 350.50329878 472.40767499 348.54760772 472.41848749 C347.14192983 472.41623647 345.73625224 472.41379001 344.33057499 472.41116905 C342.82753108 472.4156242 341.32448951 472.42093916 339.82145137 472.42703778 C335.69884155 472.44119495 331.57630722 472.4428815 327.45367658 472.44244087 C323.00429663 472.44409109 318.5549476 472.45716142 314.10558414 472.46863365 C304.38029691 472.49146667 294.65503152 472.49940239 284.92972112 472.5044601 C278.85484667 472.50771899 272.77997855 472.51424263 266.70510769 472.52146149 C249.87839843 472.54102495 233.05169504 472.55743073 216.22497368 472.56033802 C215.14856016 472.56052559 214.07214665 472.56071316 212.96311454 472.56090641 C210.78105938 472.56127266 208.59900423 472.56163636 206.41694907 472.56199753 C205.33380619 472.56218034 204.25066331 472.56236315 203.13469791 472.5625515 C201.50799568 472.56282232 201.50799568 472.56282232 199.84843078 472.56309862 C182.27767538 472.56663998 164.70704257 472.59366116 147.13632969 472.63104939 C129.08748551 472.66914703 111.03870213 472.6884956 92.98981684 472.68879753 C82.85972802 472.68938176 72.72978544 472.69785163 62.59973431 472.7267952 C53.97372115 472.7513285 45.34790759 472.75857876 36.72186897 472.74354767 C32.32333384 472.73638685 27.92519269 472.73720035 23.52670193 472.75995827 C19.49404778 472.78062286 15.46208864 472.77787889 11.42944141 472.75708342 C9.97654783 472.75360276 8.52360333 472.75843786 7.07077644 472.77278786 C-6.82530128 472.90111395 -17.56460506 469.14017258 -27.69611263 459.58623314 C-35.37842091 451.4371517 -38.21090735 441.51592766 -38.1718359 430.60765648 C-38.17269032 429.73852568 -38.17354475 428.86939488 -38.17442507 427.97392678 C-38.17607445 425.05658878 -38.17056731 422.13930805 -38.16510677 419.22197533 C-38.16482476 417.13274194 -38.16498291 415.04350846 -38.16554928 412.95427513 C-38.1658367 407.27699846 -38.15994889 401.59974282 -38.15297532 395.92247105 C-38.14673258 389.99140275 -38.14613725 384.060334 -38.14494991 378.12926292 C-38.14183932 366.89544664 -38.13362958 355.66164007 -38.12360042 344.42782807 C-38.11243086 331.63958814 -38.10692671 318.85134775 -38.10190499 306.06310415 C-38.09144676 279.75440218 -38.07385255 253.44570883 -38.05158138 227.13701439 C-39.30857845 226.99457298 -40.56557552 226.85213158 -41.86066341 226.70537376 C-53.20990333 225.41929146 -62.8578413 217.51725544 -69.86408138 208.91045189 C-76.38940952 199.67711257 -79.2337861 190.16529061 -79.36408138 179.01201439 C-79.39308529 178.20763939 -79.4220892 177.40326439 -79.45197201 176.57451439 C-79.55945521 166.2230552 -74.61576888 157.95100844 -69.67658138 149.13701439 C-68.60804271 147.20518177 -67.54037156 145.27286911 -66.47345638 143.34013939 C-65.91593685 142.33273705 -65.35841732 141.3253347 -64.78400326 140.28740501 C-61.23648397 133.83627918 -57.77400322 127.33893679 -54.30011654 120.84795189 C-53.76177181 119.84506126 -53.22342709 118.84217064 -52.66876888 117.80888939 C-52.11559994 116.74549339 -51.56243099 115.6820974 -50.99249935 114.58647728 C-49.55577426 112.03308246 -48.11671133 109.77339564 -46.42706966 107.40434837 C-37.27093735 93.95314841 -37.78339823 80.53986316 -38.13452816 64.72850609 C-38.23238872 60.00691138 -38.26715731 55.28502958 -38.28763485 50.56253624 C-38.30171896 48.06462096 -38.33796594 45.56669104 -38.40073299 43.06952477 C-38.5371217 30.66345717 -34.69519183 20.37927984 -26.27423763 11.19951439 C-19.15315673 4.44249692 -9.83495516 0.02075914 0 0 Z " fill="#F2F2F2" transform="translate(79.05158138275146,19.862985610961914)"/>
<path d="M0 0 C1.91024331 -0.00761181 1.91024331 -0.00761181 3.85907739 -0.0153774 C5.28045424 -0.0159791 6.70183113 -0.01647817 8.12320805 -0.01688576 C9.62692299 -0.0209 11.13063685 -0.02533816 12.63434941 -0.03016531 C16.77737923 -0.04214137 20.92039741 -0.04778168 25.06344116 -0.05234647 C29.52788011 -0.05829882 33.99230511 -0.06990975 38.45673466 -0.08063698 C49.24539844 -0.10517199 60.03406684 -0.11979108 70.82274994 -0.13269705 C73.87010158 -0.1364086 76.91745275 -0.14038188 79.96480393 -0.14444971 C98.88802782 -0.1696892 117.81125243 -0.19174262 136.73448944 -0.20417786 C141.11886885 -0.20710757 145.50324824 -0.21006923 149.8876276 -0.21308327 C150.97734838 -0.21382932 152.06706916 -0.21457537 153.18981177 -0.21534403 C170.83518083 -0.22799248 188.480449 -0.26120773 206.12577092 -0.3028851 C224.24228332 -0.34532446 242.35874412 -0.36887533 260.47530609 -0.37409842 C270.64682155 -0.37751059 280.81817945 -0.38924272 290.98964596 -0.42220116 C299.65417507 -0.4502305 308.31851434 -0.4611884 316.98308527 -0.4500057 C321.40185092 -0.44482615 325.8202192 -0.44765977 330.23892689 -0.47247124 C334.29023384 -0.4950291 338.34085948 -0.49417372 342.3921789 -0.47526737 C343.85192562 -0.47247643 345.3117192 -0.47801524 346.77139085 -0.4930803 C360.69429504 -0.62790277 371.44050139 3.11410907 381.59294987 12.68779564 C388.19457446 19.6905316 392.1933996 29.08377897 391.93157291 38.6863308 C391.80425018 44.32058418 391.72907096 49.95186256 391.69633102 55.58750916 C391.67280322 58.98037831 391.6254578 62.36916695 391.51995182 65.76054955 C390.97046363 85.78167664 394.26831264 99.31431656 405.11766911 116.20689964 C408.21653449 121.16663395 410.90309979 126.34471243 413.63591862 131.51201439 C416.76919073 137.31723878 419.92448124 143.10899498 423.13591862 148.87138939 C423.64163395 149.78098412 424.14734928 150.69057884 424.66838932 151.62773705 C425.61551263 153.32786357 426.56687093 155.02564096 427.52336979 156.72051048 C431.61652463 164.07024018 433.31816547 169.97919431 433.26091862 178.38701439 C433.25600407 179.23312279 433.25108952 180.07923119 433.24602604 180.95097923 C433.13069086 187.09864003 432.52334313 192.48677518 429.94841862 198.13701439 C429.61970768 198.87693626 429.29099674 199.61685814 428.95232487 200.37920189 C422.64560633 212.99263897 412.31958395 221.2995912 399.40544987 226.37529564 C384.81047735 230.89996915 366.68168822 229.61623593 353.15544987 222.71123314 C341.08687645 215.81235882 332.48499813 206.17205088 328.38591862 192.82451439 C327.88276814 190.93490482 327.3940353 189.04101294 326.94841862 187.13701439 C326.72927799 187.88724876 326.51013737 188.63748314 326.28435612 189.41045189 C321.70721104 204.18383883 314.06126841 215.25728373 300.36638737 222.92217064 C288.20732302 229.03116743 274.92134499 229.90471866 261.85076237 226.16045189 C247.22357069 221.00254581 237.77630604 211.17195765 231.19060612 197.49638939 C229.9032144 194.014764 229.33169883 190.82024377 228.94841862 187.13701439 C228.28841862 187.13701439 227.62841862 187.13701439 226.94841862 187.13701439 C226.84271549 188.15279564 226.73701237 189.16857689 226.62810612 190.21513939 C224.57910398 202.03811724 217.26685529 211.8841254 207.94841862 219.13701439 C203.5072426 221.98866427 198.83489797 224.1442377 193.94841862 226.13701439 C193.25361393 226.42318626 192.55880924 226.70935814 191.84294987 227.00420189 C179.6416594 230.93662663 165.49979448 228.13181771 154.27263737 222.88701439 C142.39591059 216.38529149 134.65972804 206.65728315 129.94841862 194.13701439 C129.54407606 191.81493285 129.18973449 189.48165129 128.94841862 187.13701439 C128.28841862 187.13701439 127.62841862 187.13701439 126.94841862 187.13701439 C126.80146549 188.6510183 126.80146549 188.6510183 126.65154362 190.19560814 C126.06600866 194.26466662 124.56768697 197.53005934 122.69841862 201.19951439 C122.11576237 202.36611595 121.53310612 203.53271751 120.93279362 204.73467064 C114.20044718 216.27772919 103.41006811 222.9771801 90.94841862 227.13701439 C78.3311315 230.40661039 64.41892379 228.54524831 52.98357487 222.59404564 C38.77819926 214.07861472 31.5340019 202.83589362 26.94841862 187.13701439 C26.74087955 187.95943626 26.53334049 188.78185814 26.31951237 189.62920189 C24.09520109 197.68884023 21.12483178 203.60809422 15.94841862 210.13701439 C15.35029362 211.02388939 14.75216862 211.91076439 14.13591862 212.82451439 C5.28580491 222.18034888 -7.38286974 227.98400219 -20.22345638 228.43779564 C-37.66571573 228.62242728 -52.12515786 226.81672583 -65.42658138 214.32451439 C-74.74596885 204.30762599 -79.20637219 192.51192168 -79.36408138 179.01201439 C-79.39308529 178.20763939 -79.4220892 177.40326439 -79.45197201 176.57451439 C-79.55945521 166.2230552 -74.61576888 157.95100844 -69.67658138 149.13701439 C-68.60804271 147.20518177 -67.54037156 145.27286911 -66.47345638 143.34013939 C-65.91593685 142.33273705 -65.35841732 141.3253347 -64.78400326 140.28740501 C-61.23648397 133.83627918 -57.77400322 127.33893679 -54.30011654 120.84795189 C-53.76177181 119.84506126 -53.22342709 118.84217064 -52.66876888 117.80888939 C-52.11559994 116.74549339 -51.56243099 115.6820974 -50.99249935 114.58647728 C-49.55577426 112.03308246 -48.11671133 109.77339564 -46.42706966 107.40434837 C-37.27093735 93.95314841 -37.78339823 80.53986316 -38.13452816 64.72850609 C-38.23238872 60.00691138 -38.26715731 55.28502958 -38.28763485 50.56253624 C-38.30171896 48.06462096 -38.33796594 45.56669104 -38.40073299 43.06952477 C-38.5371217 30.66345717 -34.69519183 20.37927984 -26.27423763 11.19951439 C-19.15315673 4.44249692 -9.83495516 0.02075914 0 0 Z " fill="#FC646F" transform="translate(79.05158138275146,19.862985610961914)"/>
<path d="M0 0 C1.91024331 -0.00761181 1.91024331 -0.00761181 3.85907739 -0.0153774 C5.28045424 -0.0159791 6.70183113 -0.01647817 8.12320805 -0.01688576 C9.62692299 -0.0209 11.13063685 -0.02533816 12.63434941 -0.03016531 C16.77737923 -0.04214137 20.92039741 -0.04778168 25.06344116 -0.05234647 C29.52788011 -0.05829882 33.99230511 -0.06990975 38.45673466 -0.08063698 C49.24539844 -0.10517199 60.03406684 -0.11979108 70.82274994 -0.13269705 C73.87010158 -0.1364086 76.91745275 -0.14038188 79.96480393 -0.14444971 C98.88802782 -0.1696892 117.81125243 -0.19174262 136.73448944 -0.20417786 C141.11886885 -0.20710757 145.50324824 -0.21006923 149.8876276 -0.21308327 C150.97734838 -0.21382932 152.06706916 -0.21457537 153.18981177 -0.21534403 C170.83518083 -0.22799248 188.480449 -0.26120773 206.12577092 -0.3028851 C224.24228332 -0.34532446 242.35874412 -0.36887533 260.47530609 -0.37409842 C270.64682155 -0.37751059 280.81817945 -0.38924272 290.98964596 -0.42220116 C299.65417507 -0.4502305 308.31851434 -0.4611884 316.98308527 -0.4500057 C321.40185092 -0.44482615 325.8202192 -0.44765977 330.23892689 -0.47247124 C334.29023384 -0.4950291 338.34085948 -0.49417372 342.3921789 -0.47526737 C343.85192562 -0.47247643 345.3117192 -0.47801524 346.77139085 -0.4930803 C360.69429504 -0.62790277 371.44050139 3.11410907 381.59294987 12.68779564 C400.90396413 33.17213735 391.94841862 71.14627638 391.94841862 93.13701439 C250.04841862 93.13701439 108.14841862 93.13701439 -38.05158138 93.13701439 C-38.05158138 24.03811329 -38.05158138 24.03811329 -26.27423763 11.19951439 C-19.15315673 4.44249692 -9.83495516 0.02075914 0 0 Z " fill="#50758C" transform="translate(79.05158138275146,19.862985610961914)"/>
<path d="M0 0 C55.11 0 110.22 0 167 0 C167.33 31.02 167.66 62.04 168 94 C167.34 94 166.68 94 166 94 C165.85304687 95.51400391 165.85304687 95.51400391 165.703125 97.05859375 C165.11759004 101.12765224 163.61926835 104.39304495 161.75 108.0625 C161.16734375 109.22910156 160.5846875 110.39570313 159.984375 111.59765625 C153.25202856 123.1407148 142.4616495 129.84016571 130 134 C117.38271288 137.269596 103.47050517 135.40823392 92.03515625 129.45703125 C77.82978064 120.94160033 70.58558328 109.69887923 66 94 C65.79246094 94.82242188 65.58492188 95.64484375 65.37109375 96.4921875 C63.14678248 104.55182584 60.17641316 110.47107983 55 117 C54.401875 117.886875 53.80375 118.77375 53.1875 119.6875 C44.3373863 129.04333449 31.66871164 134.8469878 18.828125 135.30078125 C1.38586565 135.48541289 -13.07357648 133.67971144 -26.375 121.1875 C-35.69438747 111.1706116 -40.1547908 99.37490729 -40.3125 85.875 C-40.34150391 85.070625 -40.37050781 84.26625 -40.40039062 83.4375 C-40.50787383 73.08604081 -35.5641875 64.81399405 -30.625 56 C-29.55646133 54.06816738 -28.48879017 52.13585472 -27.421875 50.203125 C-26.86435547 49.19572266 -26.30683594 48.18832031 -25.73242188 47.15039062 C-22.18490258 40.69926479 -18.72242184 34.2019224 -15.24853516 27.7109375 C-10.25993371 18.41759557 -5.12457322 9.22423179 0 0 Z " fill="#FEC582" transform="translate(40,113)"/>
<path d="M0 0 C1.4080188 0.02429077 1.4080188 0.02429077 2.84448242 0.04907227 C12.87717549 0.41551982 20.44165578 2.57350473 27.5 10 C31.08618237 14.47340836 33.9375 18.72732885 33.9375 24.625 C35.29890248 24.61808655 35.29890248 24.61808655 36.68780804 24.61103344 C58.76256258 24.50065509 80.83726961 24.41789248 102.91224194 24.36593914 C113.58751009 24.34014765 124.26259414 24.30497897 134.93774414 24.24780273 C144.24123882 24.19799681 153.54460017 24.16571586 162.84822446 24.15455753 C167.77537462 24.14803402 172.70214335 24.13268224 177.62917137 24.09634972 C182.26589182 24.06243469 186.9020734 24.05193794 191.5389061 24.05946159 C193.24130875 24.05808503 194.94372924 24.0481256 196.6460247 24.02897263 C198.97022044 24.00410324 201.29238036 24.01007044 203.61662292 24.02372742 C204.91727283 24.01911845 206.21792273 24.01450949 207.55798626 24.00976086 C211.80846591 24.783559 213.29545509 26.27697708 215.9375 29.625 C216.29711914 32.09326172 216.29711914 32.09326172 215.91015625 34.6796875 C215.7723877 35.64616211 215.63461914 36.61263672 215.49267578 37.60839844 C214.55863504 42.68359961 213.52050984 47.71813939 212.375 52.75 C210.42254643 61.55275208 208.57260926 70.36478058 206.8671875 79.21875 C206.69157791 80.12962372 206.51596832 81.04049744 206.33503723 81.97897339 C205.63224677 85.63338707 204.93168868 89.28817511 204.24093628 92.94488525 C199.47267117 118.1868577 199.47267117 118.1868577 196.24032211 121.21490955 C193.34992193 122.98479254 191.55698836 122.99490836 188.17950439 122.98576355 C187.00443832 122.98988754 185.82937225 122.99401154 184.61869812 122.9982605 C183.33332657 122.98747467 182.04795502 122.97668884 180.72363281 122.96557617 C179.35360228 122.96472976 177.98357039 122.96520531 176.61354065 122.96690369 C172.89683462 122.96776454 169.18041895 122.95012441 165.4637804 122.92918181 C161.57871281 122.91042994 157.69363858 122.90866575 153.80853271 122.90510559 C146.45270531 122.89578073 139.09701164 122.87116103 131.74124312 122.84105712 C123.36647973 122.8075268 114.99170996 122.79103055 106.61689615 122.77597082 C89.39035341 122.74461182 72.16394084 122.6918428 54.9375 122.625 C55.50470119 124.71278312 56.09194203 126.79512831 56.6875 128.875 C57.17476562 130.61523438 57.17476562 130.61523438 57.671875 132.390625 C59.23433631 136.38358167 61.09277292 138.70263646 64.9375 140.625 C66.54811429 140.71896317 68.16260234 140.74964795 69.7759552 140.74957275 C70.79800552 140.75213577 71.82005585 140.75469879 72.87307739 140.75733948 C73.99882172 140.75523972 75.12456604 140.75313995 76.28442383 140.75097656 C77.46662003 140.7528447 78.64881622 140.75471283 79.86683655 140.75663757 C82.44123427 140.76064932 85.01563557 140.76271712 87.59003639 140.76309967 C91.6620094 140.76423915 95.73389157 140.77707138 99.80583191 140.79266357 C100.49285039 140.79523643 101.17986888 140.79780928 101.8877061 140.8004601 C103.29271769 140.8057268 104.6977292 140.81101228 106.10274065 140.81631613 C115.58388858 140.85143347 125.06492422 140.87797837 134.54614258 140.87548828 C140.93969036 140.87389937 147.33292899 140.88994304 153.72637767 140.92619491 C157.10976987 140.9446535 160.49264596 140.9539995 163.87607765 140.94171906 C167.65199957 140.93213199 171.42659094 140.95321738 175.20239258 140.98144531 C176.88190002 140.96615028 176.88190002 140.96615028 178.59533691 140.95054626 C186.15972605 141.05215487 186.15972605 141.05215487 190.13188171 143.97772217 C191.9375 146.625 191.9375 146.625 192.5625 149.625 C191.72592434 153.64056315 190.14840106 155.14384918 186.9375 157.625 C185.6175 157.625 184.2975 157.625 182.9375 157.625 C183.2675 158.615 183.5975 159.605 183.9375 160.625 C184.75877776 167.32985779 183.6492508 172.94881284 179.9375 178.625 C175.25771242 183.75420351 170.71292807 187.15079164 163.703125 188.03125 C156.58374046 188.22110025 151.49258979 187.9611365 145.77734375 183.48046875 C138.08046471 175.71822343 137.9375 169.83149118 137.9375 158.625 C127.0475 158.295 116.1575 157.965 104.9375 157.625 C105.2675 158.615 105.5975 159.605 105.9375 160.625 C106.98520951 167.94399929 105.04440835 173.56242101 100.9375 179.625 C96.60173165 184.41508576 92.18220231 187.25672435 85.66796875 187.99609375 C78.06289353 188.13863651 72.66044799 187.91838047 66.9375 182.625 C62.59907923 178.36464849 60.11302424 174.27571359 59.70703125 168.14453125 C59.72121094 166.92121094 59.73539062 165.69789063 59.75 164.4375 C59.75644531 163.20644531 59.76289063 161.97539062 59.76953125 160.70703125 C59.9375 157.625 59.9375 157.625 60.9375 155.625 C60.40125 155.5425 59.865 155.46 59.3125 155.375 C52.75307966 153.3036041 47.71851811 148.22786461 43.9375 142.625 C41.32922227 136.60839925 39.94575808 130.60483351 38.6875 124.1875 C38.25087266 122.02716719 37.81332289 119.86702068 37.375 117.70703125 C37.02695313 115.98154053 37.02695313 115.98154053 36.671875 114.22119141 C35.52464113 108.60325425 34.31923905 102.99793018 33.11889648 97.3911438 C30.89059509 86.97711353 28.71019966 76.55457317 26.59375 66.1171875 C26.39404602 65.13375366 26.19434204 64.15031982 25.98858643 63.13708496 C25.00269325 58.27955378 24.02104461 53.42122335 23.04589844 48.56152344 C22.18621646 44.29289558 21.3034678 40.02986354 20.39379883 35.77160645 C19.99052379 33.87444447 19.60249926 31.97405464 19.21679688 30.07324219 C18.27198697 25.94830681 17.40900372 22.53566071 14.37890625 19.47265625 C9.76816951 16.99719827 6.02738661 16.99088673 0.875 17.0625 C-8.18176706 17.14825235 -8.18176706 17.14825235 -12.11328125 14.8125 C-14.85694594 11.73343742 -15.20617603 9.71976694 -15.0625 5.625 C-10.92871705 -0.27917649 -6.65404645 -0.16983303 0 0 Z " fill="#52768E" transform="translate(141.0625,275.375)"/>
<path d="M0 0 C25.41 0 50.82 0 77 0 C75.906875 7.816875 74.81375 15.63375 73.6875 23.6875 C73.18029419 27.31625122 73.18029419 27.31625122 72.6628418 31.01831055 C72.52235413 32.02199173 72.38186646 33.02567291 72.23712158 34.05976868 C71.94640326 36.13818983 71.65647752 38.21672192 71.36712646 40.29533386 C70.64005774 45.50355168 69.89944454 50.7087101 69.11547852 55.90869141 C67.75613569 64.97439385 66.64247229 73.8159484 66.5625 83 C66.16540803 96.50906892 63.55172001 106.21386384 55 117 C54.401875 117.886875 53.80375 118.77375 53.1875 119.6875 C44.3373863 129.04333449 31.66871164 134.8469878 18.828125 135.30078125 C1.38586565 135.48541289 -13.07357648 133.67971144 -26.375 121.1875 C-35.69438747 111.1706116 -40.1547908 99.37490729 -40.3125 85.875 C-40.34150391 85.070625 -40.37050781 84.26625 -40.40039062 83.4375 C-40.50787383 73.08604081 -35.5641875 64.81399405 -30.625 56 C-29.55646133 54.06816738 -28.48879017 52.13585472 -27.421875 50.203125 C-26.86435547 49.19572266 -26.30683594 48.18832031 -25.73242188 47.15039062 C-22.18490258 40.69926479 -18.72242184 34.2019224 -15.24853516 27.7109375 C-10.25993371 18.41759557 -5.12457322 9.22423179 0 0 Z " fill="#FD636E" transform="translate(40,113)"/>
<path d="M0 0 C25.08 0 50.16 0 76 0 C80.62 8.58 85.24 17.16 90 26 C98.02945885 40.90241276 98.02945885 40.90241276 106.1875 55.734375 C106.69321533 56.64396973 107.19893066 57.55356445 107.7199707 58.49072266 C108.66709401 60.19084918 109.61845232 61.88862657 110.57495117 63.58349609 C114.66810601 70.93322579 116.36974685 76.84217992 116.3125 85.25 C116.30512817 86.5191626 116.30512817 86.5191626 116.29760742 87.81396484 C116.18227224 93.96162564 115.57492451 99.34976079 113 105 C112.67128906 105.73992187 112.34257812 106.47984375 112.00390625 107.2421875 C105.69718771 119.85562458 95.37116533 128.16257681 82.45703125 133.23828125 C67.86205873 137.76295476 49.7332696 136.47922155 36.20703125 129.57421875 C24.70395794 122.99860668 16.02882431 113.64073101 11.5 101.0625 C9.68738507 94.30786769 9.5539482 87.56263366 9.35473633 80.61254883 C9.16457426 74.40388764 8.6428535 68.38630902 7.6875 62.25 C6.21478354 52.77355063 5.04023353 43.27513615 3.9375 33.75 C3.85559418 33.04460083 3.77368835 32.33920166 3.68930054 31.61242676 C3.12399105 26.74187171 2.56220378 21.87091537 2 17 C1.34 11.39 0.68 5.78 0 0 Z " fill="#FD636E" transform="translate(396,113)"/>
<path d="M0 0 C29.37 0 58.74 0 89 0 C91.24973985 11.24869927 91.24973985 11.24869927 92 17.01171875 C92.165 18.26533203 92.33 19.51894531 92.5 20.81054688 C92.665 22.08994141 92.83 23.36933594 93 24.6875 C93.165 25.94755859 93.33 27.20761719 93.5 28.50585938 C93.83331416 31.05128586 94.16550836 33.59685926 94.49658203 36.14257812 C96.01636657 47.80052508 96.01636657 47.80052508 97.6328125 59.4453125 C100.27814261 79.22230427 101.58221257 99.18635291 89 116 C80.32858332 126.25257711 69.39445248 133.1221177 56 135 C41.40001199 135.98597322 28.59257532 132.97638051 17.11328125 123.65625 C8.36340997 115.53904336 2.2605299 106.11338489 1 94 C0.34 94 -0.32 94 -1 94 C-0.67 62.98 -0.34 31.96 0 0 Z " fill="#FEC582" transform="translate(307,113)"/>
<path d="M0 0 C1.41336607 -0.0057088 2.82672753 -0.01267503 4.24008179 -0.02079773 C8.06466379 -0.03869131 11.88901587 -0.03756759 15.7136271 -0.03185534 C18.9141552 -0.02875696 22.11463955 -0.03486339 25.31516141 -0.04089409 C32.87111492 -0.05492619 40.42695535 -0.05338995 47.98291016 -0.04199219 C55.75884918 -0.03052123 63.53444289 -0.04457226 71.31033641 -0.07138866 C78.00274743 -0.09359812 84.69505047 -0.100171 91.3874957 -0.09431225 C95.37731933 -0.09095288 99.36692185 -0.09328896 103.35671425 -0.11056328 C107.11206349 -0.12611359 110.86690459 -0.12198838 114.62223434 -0.10325813 C116.64320941 -0.09785809 118.66420773 -0.11202597 120.68513489 -0.12695312 C129.18662816 -0.05863081 136.73658206 0.86199346 143.4909668 6.40405273 C144.2644043 7.39405273 144.2644043 7.39405273 145.0534668 8.40405273 C145.8578418 9.39405273 145.8578418 9.39405273 146.6784668 10.40405273 C151.03917429 16.7469 150.72234442 22.85166238 150.0534668 30.40405273 C148.42964377 36.58819314 144.3804693 41.00319803 139.0534668 44.40405273 C132.31015098 48.21770437 125.59436946 47.84248334 118.01513672 47.82397461 C116.59191729 47.83132231 115.1687038 47.83991058 113.74549866 47.84963989 C109.89407178 47.87179333 106.04285924 47.87478962 102.1913774 47.87289238 C98.96847886 47.87277237 95.74562522 47.88134912 92.52273923 47.8896699 C84.91405457 47.90888254 77.30547961 47.91179593 69.69677734 47.9050293 C61.86624795 47.89839305 54.03619015 47.92124073 46.20575637 47.95834303 C39.46663373 47.98910739 32.72766225 48.0003927 25.98847085 47.99650621 C21.97064103 47.9944453 17.95317814 47.99981515 13.93541527 48.0243988 C10.15372435 48.04677485 6.37279609 48.04469938 2.59110069 48.02447128 C0.55579315 48.01947328 -1.47952932 48.03900211 -3.51473999 48.05947876 C-12.18986736 47.98055821 -19.28021005 46.67507427 -25.84867573 40.66304779 C-30.48041535 35.73374646 -33.04774754 30.3189033 -33.4465332 23.52905273 C-33.2211789 17.08195995 -30.62144005 12.31404641 -26.30200195 7.61499023 C-18.21695497 0.20521806 -10.60499213 -0.0363047 0 0 Z " fill="#F2F2F3" transform="translate(296.946533203125,42.595947265625)"/>
<path d="M0 0 C34.98 0 69.96 0 106 0 C106 13.72478441 100.6762584 23.80330716 91.38671875 33.70703125 C78.78302782 45.81565085 64.23640429 47.50111308 47.51171875 47.27734375 C34.25091062 46.82504061 22.63203256 41.04798127 13 32 C5.01275462 22.48768187 0 12.65624763 0 0 Z " fill="#FB4755" transform="translate(406,201)"/>
<path d="M0 0 C34.98 0 69.96 0 106 0 C104.7939133 12.060867 102.01303086 19.34744928 95 29 C94.13375 30.299375 94.13375 30.299375 93.25 31.625 C84.36442211 41.00422111 71.71942871 46.84519543 58.828125 47.30078125 C41.38586565 47.48541289 26.92642352 45.67971144 13.625 33.1875 C4.9450478 23.85790481 0 12.69643671 0 0 Z " fill="#FB4755" transform="translate(0,201)"/>
<path d="M0 0 C33.33 0 66.66 0 101 0 C101.495 2.97 101.495 2.97 102 6 C101.34 6 100.68 6 100 6 C99.90203125 7.00933594 99.8040625 8.01867187 99.703125 9.05859375 C99.11759004 13.12765224 97.61926835 16.39304495 95.75 20.0625 C94.87601563 21.81240234 94.87601563 21.81240234 93.984375 23.59765625 C87.25202856 35.1407148 76.4616495 41.84016571 64 46 C51.38271288 49.269596 37.47050517 47.40823392 26.03515625 41.45703125 C12.56048266 33.37962061 5.13870259 22.91412532 0.6640625 7.98046875 C0 5 0 5 0 0 Z " fill="#FEAC5C" transform="translate(106,201)"/>
<path d="M0 0 C33 0 66 0 100 0 C97.49509194 16.28190237 93.21703243 27.7126876 80 38 C75.55882399 40.85164988 70.88647936 43.00722332 66 45 C65.30519531 45.28617188 64.61039062 45.57234375 63.89453125 45.8671875 C51.69324079 49.79961224 37.55137587 46.99480332 26.32421875 41.75 C14.66902627 35.36955249 6.33989337 25.56349813 2 13 C1.34 8.71 0.68 4.42 0 0 Z " fill="#FB4755" transform="translate(207,201)"/>
<path d="M0 0 C32.67 0 65.34 0 99 0 C97.30059918 15.29460738 91.90367742 26.99584557 80 37 C67.74966552 45.6220507 54.7705455 48.73615546 39.875 46.5390625 C26.78633931 43.64183292 15.27716405 36.63820748 7.85644531 25.24414062 C4.23184102 19.05611536 1.749702 13.20445337 1 6 C0.34 6 -0.32 6 -1 6 C-0.67 4.02 -0.34 2.04 0 0 Z " fill="#FEAC5C" transform="translate(307,201)"/>
<path d="M0 0 C6.14963352 4.14847307 10.00153141 8.80551308 12 16 C12.84681843 22.66869517 11.37798978 28.17391651 8 34 C2.54189682 40.44829004 -3.64826282 43.51647365 -11.9375 44.4375 C-18.0545233 44.17258954 -23.20380392 41.5167878 -27.8125 37.625 C-33.29391343 31.04730388 -35.4610772 26.21103393 -35.3359375 17.7265625 C-34.63047945 12.00086813 -32.18997637 7.13699307 -28.0625 3.109375 C-19.42151324 -3.63321315 -9.90051097 -5.48726545 0 0 Z " fill="#FCC482" transform="translate(161,46)"/>
<path d="M0 0 C4.6891117 4.22193083 8.65668794 8.7584954 9.3359375 15.171875 C9.42676889 23.49203021 9.14307432 29.41639626 3.45703125 35.70703125 C-1.53191576 40.39915303 -7.12493923 43.05210086 -14 43.375 C-20.18927858 43.09587567 -26.01840647 40.85480253 -30.61328125 36.625 C-35.86913061 30.46603287 -37.86860476 23.93139766 -37.4765625 15.89453125 C-36.37825818 9.22368291 -33.26463372 4.70042234 -28 0.5625 C-18.83117511 -5.60127241 -9.61805643 -5.71369689 0 0 Z " fill="#92DBB6" transform="translate(224,47)"/>
<path d="M0 0 C5.4919077 3.16406205 10.44721511 8.5583805 12.75 14.5 C13.64624308 22.28480906 13.47131527 29.97695718 8.75 36.5 C3.46924902 41.61538299 -2.16971234 44.78045722 -9.625 44.8125 C-16.94767753 44.64562933 -22.30464459 42.19693536 -27.671875 37.2890625 C-32.26565859 32.08125833 -34.02270093 25.92247407 -33.69140625 19.05078125 C-32.54032865 12.39897882 -29.571458 7.15234981 -24.25 3 C-17.01338165 -2.01894499 -8.27078458 -3.64365949 0 0 Z " fill="#FA636F" transform="translate(98.25,44.5)"/>
<path d="M0 0 C1.00334437 3.01003312 0.96809839 4.47442505 0.75 7.5625 C0.6918716 14.18913772 3.07497806 19.64104624 7.421875 24.6328125 C15.20306995 31.6191542 23.20688747 31.43127809 33.11767578 31.37231445 C34.54900374 31.37474506 35.98033001 31.37846698 37.41165161 31.38337708 C41.28344157 31.3927513 45.1549772 31.38339092 49.02674723 31.37004495 C53.08430914 31.35869767 57.14185914 31.36284037 61.19943237 31.36479187 C68.01011289 31.36567361 74.82069364 31.35461793 81.63134766 31.33618164 C89.50159114 31.31499885 97.3716887 31.31150847 105.24195492 31.3177436 C112.82119299 31.3234403 120.40037977 31.31778908 127.97961044 31.30657005 C131.2019839 31.30192987 134.42432593 31.30104768 137.64670181 31.3031559 C141.44049675 31.30504112 145.23414339 31.29691699 149.02790451 31.2810955 C150.41905351 31.27685776 151.81021758 31.27599868 153.20137024 31.27878571 C155.10195588 31.28201539 157.00255008 31.27168631 158.90310669 31.26069641 C159.9660602 31.25864354 161.02901371 31.25659067 162.12417793 31.25447559 C165.03502801 31.13627489 165.03502801 31.13627489 167.69355583 29.92120647 C170 29 170 29 173 30 C172.01394648 30.95215793 171.01006634 31.88585431 170 32.8125 C169.443125 33.33457031 168.88625 33.85664062 168.3125 34.39453125 C160.67372424 39.69780293 152.81397652 39.44187781 143.84814453 39.41992188 C142.42477761 39.4272718 141.00141663 39.4358607 139.57806396 39.44558716 C135.73082825 39.46771485 131.88380727 39.47073827 128.03651667 39.46883965 C124.8160533 39.46871954 121.59563476 39.47729998 118.37518394 39.48561716 C110.7727156 39.50481973 103.17035704 39.50774655 95.56787109 39.50097656 C87.74470526 39.49433785 79.92201116 39.51720026 72.09894097 39.55429029 C65.3640444 39.58505365 58.62929908 39.59634017 51.89433372 39.59245348 C47.87987212 39.59039283 43.86577778 39.59575861 39.85138321 39.62034607 C36.07378264 39.6427211 32.29694557 39.6406475 28.51934052 39.62041855 C26.48642793 39.61542069 24.45350041 39.63494907 22.42068481 39.65542603 C14.62491651 39.58442201 8.43207471 38.65151363 2 34 C-4.0440135 27.60480897 -6.47060375 21.58306441 -6.328125 12.796875 C-5.72855284 7.68623608 -3.61678688 3.61678688 0 0 Z " fill="#2C5A7F" transform="translate(264,58)"/>
<path d="M0 0 C17.49 0 34.98 0 53 0 C52.13191282 8.68087183 51.08209989 17.34320088 50 26 C34.49 26 18.98 26 3 26 C2.01 17.42 1.02 8.84 0 0 Z " fill="#F1F2F3" transform="translate(233,315)"/>
<path d="M0 0 C14.19 0 28.38 0 43 0 C42.03657679 8.67080889 41.0193427 17.33558706 40 26 C27.79 26 15.58 26 3 26 C2.01 17.42 1.02 8.84 0 0 Z " fill="#EFF1F1" transform="translate(238,356)"/>
<path d="M0 0 C13.2 0 26.4 0 40 0 C40.495 3.361875 40.99 6.72375 41.5 10.1875 C41.65662109 11.23832764 41.81324219 12.28915527 41.97460938 13.37182617 C42.09642578 14.21205322 42.21824219 15.05228027 42.34375 15.91796875 C42.46943359 16.77156982 42.59511719 17.6251709 42.72460938 18.50463867 C43 21 43 21 43 26 C30.79 26 18.58 26 6 26 C3.55650867 17.44778033 1.83234842 8.703655 0 0 Z " fill="#F1F2F2" transform="translate(178,315)"/>
<path d="M0 0 C12.87 0 25.74 0 39 0 C37.54910197 8.7053882 35.84919231 17.37043589 34 26 C21.79 26 9.58 26 -3 26 C-2.01 17.42 -1.02 8.84 0 0 Z " fill="#F1F2F3" transform="translate(301,315)"/>
<path d="M0 0 C11.88 0 23.76 0 36 0 C36.495 3.17625 36.99 6.3525 37.5 9.625 C37.65662109 10.6145166 37.81324219 11.6040332 37.97460938 12.62353516 C38.09642578 13.42065918 38.21824219 14.2177832 38.34375 15.0390625 C38.46943359 15.84553223 38.59511719 16.65200195 38.72460938 17.48291016 C39.03354177 20.30657417 39 23.15948636 39 26 C27.78 26 16.56 26 5 26 C4.175 22.266875 3.35 18.53375 2.5 14.6875 C2.23896484 13.51405029 1.97792969 12.34060059 1.70898438 11.1315918 C1.50595703 10.20515869 1.30292969 9.27872559 1.09375 8.32421875 C0.88427734 7.37635498 0.67480469 6.42849121 0.45898438 5.4519043 C0 3 0 3 0 0 Z " fill="#F0F1F2" transform="translate(187,356)"/>
<path d="M0 0 C11.55 0 23.1 0 35 0 C33.875 10.125 33.875 10.125 33.24609375 13.59765625 C33.1267749 14.26547119 33.00745605 14.93328613 32.88452148 15.62133789 C32.73700439 16.42692139 32.5894873 17.23250488 32.4375 18.0625 C31.963125 20.681875 31.48875 23.30125 31 26 C19.78 26 8.56 26 -3 26 C-2.01 17.42 -1.02 8.84 0 0 Z " fill="#F1F2F2" transform="translate(296,356)"/>
<path d="M0 0 C0.33 0.66 0.66 1.32 1 2 C0.67 2.99 0.34 3.98 0 5 C-0.98344815 12.65684629 0.48607747 18.71081776 5 25 C11.28324666 31.13394178 16.5752913 32.28046823 25.16015625 32.234375 C29.21950866 31.89935279 32.30332042 30.67396811 36 29 C34.58590577 32.39529917 32.97643772 34.05912817 30 36.1875 C29.29875 36.69667969 28.5975 37.20585938 27.875 37.73046875 C22.35435943 41.46840247 15.40762501 40.57648746 9 40 C2.09740887 37.64995752 -3.17560522 31.64878955 -6.375 25.25 C-8.08714321 16.34685532 -7.50553409 10.53548135 -2.41015625 2.8984375 C-1 1 -1 1 0 0 Z " fill="#2F597F" transform="translate(66,56)"/>
<path d="M0 0 C1.07601674 3.22805023 0.94320754 5.19454134 0.75 8.5625 C0.72646715 15.04972127 2.01113712 19.82550737 6 25 C11.77633282 30.04658259 17.0051133 32.29241424 24.6953125 32.234375 C28.96036527 31.80064082 32.96236899 30.39000412 37 29 C32.61797433 35.28090346 27.0943654 39.02061813 19.48046875 40.484375 C12.79579533 40.86334861 7.46784094 38.76149747 2 35 C-2.68345652 30.75198882 -5.53992544 26.37535472 -6.40625 20.01953125 C-6.64954767 11.69672356 -5.03184447 6.63424732 0 0 Z " fill="#2D5A7F" transform="translate(187,57)"/>
<path d="M0 0 C0.33 0.66 0.66 1.32 1 2 C0.67 2.99 0.34 3.98 0 5 C-0.59473994 11.43920359 -0.21204734 17.28969362 3 23 C5.333492 25.83411155 5.333492 25.83411155 8 28 C8.639375 28.556875 9.27875 29.11375 9.9375 29.6875 C16.62699009 33.94444824 23.55703592 33.63581628 31 32 C32.33542939 31.67516582 33.66961551 31.3449145 35 31 C31.18458194 36.41543208 27.4117609 39.17244395 21 41 C14.36157361 42.13106946 9.11932262 40.87008001 3.265625 37.62109375 C-2.03561681 33.82796383 -5.71858889 28.40705557 -7 22 C-7.90535981 13.62542172 -6.00476238 8.29251769 -1.25 1.5 C-0.8375 1.005 -0.425 0.51 0 0 Z " fill="#2E5A7F" transform="translate(127,56)"/>
<path d="M0 0 C2.4375 1.5625 2.4375 1.5625 4 4 C4.56783945 7.97487617 4.62340519 10.06489221 2.375 13.4375 C-0.75683492 15.49791771 -2.31544773 15.6767545 -6 15 C-8.9375 12.9375 -8.9375 12.9375 -11 10 C-11 6.45638757 -10.65850044 4.13408409 -8.875 1.0625 C-5.81547541 -0.6712306 -3.43182475 -0.42145216 0 0 Z " fill="#F0F1F1" transform="translate(305,433)"/>
<path d="M0 0 C2.4375 1.5625 2.4375 1.5625 4 4 C4.5625 7.5 4.5625 7.5 4 11 C1.4268383 13.95156784 -0.21802472 14.85637189 -4.0625 15.5625 C-7 15 -7 15 -9.375 12.875 C-11.28071139 9.50335677 -11.64850195 7.80994895 -11 4 C-8.05899778 -0.47032338 -5.13105401 -0.73300772 0 0 Z " fill="#F1F2F3" transform="translate(227,433)"/>
</svg>
