<svg width="28" height="20" viewBox="0 0 28 20" fill="none" xmlns="http://www.w3.org/2000/svg">
<path d="M26.796 2.94975C26.4709 1.7957 25.5709 0.890592 24.4117 0.570639C22.2773 2.72803e-05 13.6967 2.74182e-05 13.6967 2.74182e-05C13.6967 2.74182e-05 5.1324 -0.0136606 2.97571 0.570639C1.82251 0.891447 0.918256 1.7957 0.596592 2.94975C0.191945 5.13724 -0.00909471 7.35125 0.000315669 9.57552C-0.00396178 11.7852 0.196223 13.9958 0.596592 16.1696C0.918256 17.3237 1.82251 18.2288 2.97571 18.5539C5.11015 19.1245 13.6967 19.1245 13.6967 19.1245C13.6967 19.1245 22.2559 19.1245 24.4117 18.5539C25.5709 18.2288 26.4709 17.3245 26.796 16.1696C27.1886 13.9958 27.3803 11.7852 27.3666 9.57552C27.3803 7.35125 27.1929 5.13724 26.796 2.94975ZM10.9557 13.6707V5.46233L18.0982 9.57552L10.9557 13.6707Z" fill="white"/>
</svg>
